<svg
  width="32"
  height="32"
  viewBox="0 0 32 32"
  fill="none"
  xmlns="http://www.w3.org/2000/svg"
>
  <g clip-path="url(#clip0_128_1532)">
    <path
      d="M16.0008 0.799988C11.9695 0.799988 8.10331 2.40141 5.25276 5.25196C2.40221 8.10252 0.800781 11.9687 0.800781 16C0.800781 20.0313 2.40221 23.8975 5.25276 26.748C8.10331 29.5986 11.9695 31.2 16.0008 31.2C20.0321 31.2 23.8983 29.5986 26.7488 26.748C29.5994 23.8975 31.2008 20.0313 31.2008 16C31.2008 11.9687 29.5994 8.10252 26.7488 5.25196C23.8983 2.40141 20.0321 0.799988 16.0008 0.799988ZM15.9932 5.14465C17.1249 5.14533 18.21 5.5951 19.0104 6.39521C19.8107 7.19532 20.2608 8.28036 20.2618 9.41205V12.1975L12.9962 8.00606C12.7184 7.8453 12.4267 7.70965 12.1248 7.60072C12.4667 6.86409 13.0129 6.24102 13.6983 5.80545C14.3838 5.36988 15.1798 5.14011 15.9919 5.14339L15.9932 5.14465ZM10.2957 8.43799C11.0405 8.43799 11.7777 8.63559 12.4288 9.01052L19.6918 13.2045L16.0058 15.3299L11.4458 12.7003C11.3574 12.6494 11.2572 12.6226 11.1551 12.6226C11.0531 12.6226 10.9529 12.6494 10.8644 12.7003L7.57745 14.5978C7.2992 14.7564 7.03592 14.94 6.79085 15.1463C6.32434 14.4826 6.05789 13.6991 6.02309 12.8887C5.98829 12.0782 6.1866 11.2748 6.59451 10.5736C6.97085 9.92508 7.51068 9.38659 8.16012 9.01186C8.80956 8.63713 9.54592 8.43926 10.2957 8.43799ZM21.3448 8.45699C22.1526 8.38995 22.9627 8.55335 23.6813 8.92822C24.3999 9.30309 24.9974 9.87406 25.4045 10.5749C25.969 11.5551 26.1213 12.7194 25.828 13.8119C25.5347 14.9044 24.8197 15.8358 23.8402 16.4015L16.5746 20.5917V16.3395L21.1371 13.7086C21.2252 13.6573 21.2983 13.5837 21.349 13.4952C21.3997 13.4067 21.4262 13.3064 21.4259 13.2045V9.41205C21.4262 9.09197 21.3991 8.77244 21.3448 8.45699ZM10.5731 14.2115V22.593C10.5731 22.9147 10.5997 23.2327 10.6567 23.5481C10.5366 23.5582 10.4162 23.5632 10.2957 23.5633C9.54654 23.5621 8.81078 23.3645 8.16179 22.9902C7.51281 22.6159 6.9733 22.078 6.59705 21.4302C6.31509 20.9459 6.13206 20.4105 6.05857 19.8549C5.98508 19.2994 6.02258 18.7348 6.16891 18.1939C6.31251 17.6521 6.56224 17.1443 6.90362 16.6999C7.245 16.2555 7.67123 15.8832 8.15758 15.6048L10.5731 14.2115ZM11.7232 14.2115L15.4118 16.3395V21.5987C15.4123 21.7004 15.4395 21.8003 15.4906 21.8883C15.5417 21.9763 15.615 22.0494 15.7031 22.1003L18.9888 23.9977H18.9914C19.27 24.1586 19.5614 24.2954 19.8628 24.4031C19.5205 25.1397 18.9738 25.7626 18.2879 26.1977C17.6019 26.6329 16.8055 26.862 15.9932 26.8579C14.8618 26.8572 13.7769 26.4078 12.9764 25.6083C12.1759 24.8087 11.7253 23.7244 11.7232 22.593V14.2115ZM25.2095 16.8563C25.6763 17.52 25.9429 18.3038 25.9774 19.1146C26.012 19.9254 25.8132 20.7291 25.4045 21.4302C24.8379 22.4102 23.9054 23.1251 22.8119 23.418C21.7184 23.7108 20.5534 23.5576 19.5728 22.992L17.156 21.5987L24.4241 17.4073C24.7016 17.247 24.9643 17.0626 25.2095 16.8563Z"
      fill="white"
    />
  </g>
  <defs>
    <clipPath id="clip0_128_1532">
      <rect width="32" height="32" fill="white" />
    </clipPath>
  </defs>
</svg>