<svg
  width="32"
  height="32"
  viewBox="0 0 32 32"
  fill="none"
  xmlns="http://www.w3.org/2000/svg"
>
  <path
    d="M23.5982 11.6C24.5982 11 25.2982 10.1 25.6982 9C26.0982 7.9 26.0982 6.8 25.7982 5.7C25.4982 4.6 24.7982 3.7 23.8982 3C22.9982 2.3 21.7982 2 20.6982 2H11.4982C10.2982 2 9.19822 2.4 8.29822 3C7.19822 3.7 6.59822 4.7 6.19822 5.7C5.89822 6.8 5.89822 8 6.29822 9C6.69822 10.1 7.39822 11 8.39822 11.6C7.69822 12.1 6.99822 12.7 6.59822 13.5C6.19822 14.3 5.99822 15.1 5.99822 16C5.99822 16.9 6.19822 17.7 6.59822 18.5C6.99822 19.3 7.59822 19.9 8.39822 20.4C7.39822 21 6.69822 21.9 6.29822 23C5.89822 24.1 5.89822 25.2 6.19822 26.3C6.49822 27.4 7.19822 28.3 8.19822 29C9.09822 29.7 10.2982 30 11.3982 30C12.7982 30 14.1982 29.4 15.2982 28.5C16.2982 27.5 16.8982 26.2 16.8982 24.8V20C17.8982 20.9 19.1982 21.4 20.4982 21.4H20.5982C21.7982 21.4 22.8982 21 23.7982 20.4C24.6982 19.7 25.3982 18.8 25.6982 17.7C25.9982 16.6 25.9982 15.5 25.5982 14.4C25.2982 13.1 24.4982 12.2 23.5982 11.6ZM16.8982 3.7H20.5982C21.0982 3.7 21.5982 3.7 21.9982 3.9C22.4982 4.1 22.8982 4.3 23.1982 4.7C23.5982 5 23.7982 5.4 23.9982 5.9C24.1982 6.4 24.2982 6.8 24.2982 7.3C24.2982 7.8 24.1982 8.3 23.9982 8.7C23.7982 9.1 23.4982 9.5 23.1982 9.9C22.7982 10.2 22.3982 10.5 21.9982 10.7C21.4982 10.9 20.9982 10.9 20.5982 10.9H16.8982V3.7ZM11.3982 3.7H15.0982V10.7H11.3982C10.4982 10.7 9.59822 10.3 8.99822 9.6C8.29822 9 7.99822 8.1 7.99822 7.2C7.99822 6.3 8.39822 5.4 8.99822 4.8C9.59822 4.2 10.4982 3.8 11.3982 3.7ZM7.79822 16C7.79822 15.1 8.19822 14.2 8.89822 13.5C9.59822 12.8 10.4982 12.5 11.4982 12.5H15.1982V19.5H11.4982C10.4982 19.5 9.59822 19.1 8.89822 18.5C8.19822 17.8 7.79822 16.9 7.79822 16ZM15.0982 24.7C15.0982 25.7 14.6982 26.6 13.9982 27.2C13.2982 27.9 12.3982 28.2 11.3982 28.2C10.8982 28.2 10.3982 28.2 9.99822 28C9.49822 27.8 9.09822 27.6 8.79822 27.3C8.39822 27 8.19822 26.6 7.99822 26.1C7.79822 25.7 7.69822 25.2 7.69822 24.7C7.69822 24.2 7.79822 23.7 7.99822 23.3C8.19822 22.9 8.49822 22.5 8.79822 22.1C9.19822 21.8 9.59822 21.5 9.99822 21.3C10.4982 21.1 10.9982 21.1 11.3982 21.1H15.0982V24.7ZM20.5982 19.5H20.4982C19.5982 19.5 18.6982 19.1 18.0982 18.4C17.4982 17.7 17.0982 16.9 17.0982 16C17.0982 15.1 17.4982 14.2 18.0982 13.6C18.6982 12.9 19.5982 12.6 20.4982 12.5H20.5982C21.0982 12.5 21.5982 12.5 21.9982 12.7C22.4982 12.9 22.8982 13.1 23.1982 13.5C23.5982 13.8 23.7982 14.2 23.9982 14.7C24.1982 15.1 24.2982 15.6 24.2982 16.1C24.2982 16.6 24.1982 17.1 23.9982 17.5C23.7982 17.9 23.4982 18.3 23.1982 18.7C22.7982 19 22.3982 19.3 21.9982 19.5H20.5982Z"
    fill="white"
  />
</svg>