<svg
  xmlns="http://www.w3.org/2000/svg"
  width="32"
  height="31.346939"
  viewBox="0 0 32 31.346939"
  version="1.1"
>
  <g id="surface1">
    <path
      style="stroke: none; fill-rule: evenodd; fill: rgb(255, 255, 255); fill-opacity: 1;"
      d="M 15.953125 0 C 7.132812 0 0 7.183594 0 16.070312 C 0 23.175781 4.570312 29.1875 10.90625 31.316406 C 11.699219 31.476562 11.992188 30.972656 11.992188 30.546875 C 11.992188 30.171875 11.964844 28.894531 11.964844 27.566406 C 7.527344 28.523438 6.601562 25.648438 6.601562 25.648438 C 5.890625 23.785156 4.832031 23.308594 4.832031 23.308594 C 3.378906 22.324219 4.9375 22.324219 4.9375 22.324219 C 6.550781 22.429688 7.394531 23.972656 7.394531 23.972656 C 8.820312 26.421875 11.117188 25.730469 12.042969 25.304688 C 12.175781 24.265625 12.597656 23.546875 13.046875 23.148438 C 9.507812 22.777344 5.785156 21.390625 5.785156 15.21875 C 5.785156 13.464844 6.417969 12.027344 7.421875 10.910156 C 7.261719 10.511719 6.707031 8.859375 7.582031 6.652344 C 7.582031 6.652344 8.925781 6.226562 11.964844 8.300781 C 13.265625 7.949219 14.605469 7.769531 15.953125 7.769531 C 17.300781 7.769531 18.671875 7.957031 19.941406 8.300781 C 22.976562 6.226562 24.324219 6.652344 24.324219 6.652344 C 25.195312 8.859375 24.640625 10.511719 24.484375 10.910156 C 25.511719 12.027344 26.121094 13.464844 26.121094 15.21875 C 26.121094 21.390625 22.398438 22.75 18.832031 23.148438 C 19.414062 23.652344 19.914062 24.613281 19.914062 26.128906 C 19.914062 28.285156 19.886719 30.011719 19.886719 30.546875 C 19.886719 30.972656 20.179688 31.476562 20.96875 31.316406 C 27.308594 29.1875 31.878906 23.175781 31.878906 16.070312 C 31.90625 7.183594 24.746094 0 15.953125 0 Z M 15.953125 0 "
    />
  </g>
</svg>