<svg
  width="32"
  height="32"
  viewBox="0 0 32 32"
  fill="none"
  xmlns="http://www.w3.org/2000/svg"
>
  <path
    d="M20.982 19.9276H11.166V14.3632H20.982V19.9276ZM23.0556 9.69998H26.5476V28.4368C26.5476 29.5216 25.668 30.4 24.5832 30.4H7.56476C7.30695 30.4 7.05166 30.3492 6.81348 30.2505C6.57529 30.1519 6.35887 30.0073 6.17657 29.825C5.8084 29.4568 5.60156 28.9574 5.60156 28.4368V3.56318C5.60156 2.47838 6.47996 1.59998 7.56476 1.59998H18.4464V9.69998H23.0556ZM22.62 12.7276H9.52796V21.5632H22.62V12.7276ZM19.3464 5.55278V8.79998H26.5476L19.3476 1.59998L19.3464 5.55278Z"
    fill="white"
  />
</svg>