<svg
  xmlns="http://www.w3.org/2000/svg"
  width="32"
  height="32"
  viewBox="0 0 32 32"
  version="1.1"
>
  <g id="surface1">
    <path
      style="stroke: none; fill-rule: nonzero; fill: rgb(255, 255, 255); fill-opacity: 1;"
      d="M 0 10.507812 L 32 10.507812 L 32 21.257812 L 16 21.257812 L 16 22.988281 L 8.894531 22.988281 L 8.894531 21.257812 L 0 21.257812 Z M 1.8125 19.433594 L 5.347656 19.433594 L 5.347656 14.0625 L 7.125 14.0625 L 7.125 19.433594 L 8.882812 19.433594 L 8.882812 12.332031 L 1.8125 12.332031 Z M 10.644531 12.300781 L 10.667969 21.257812 L 14.1875 21.257812 L 14.1875 19.472656 L 17.75 19.472656 L 17.75 12.300781 Z M 14.144531 14.027344 L 16 14.027344 L 16 17.675781 L 14.144531 17.675781 Z M 19.542969 12.300781 L 19.542969 19.402344 L 23.082031 19.402344 L 23.082031 14.070312 L 24.851562 14.070312 L 24.851562 19.402344 L 26.621094 19.402344 L 26.621094 14.089844 L 28.394531 14.089844 L 28.394531 19.402344 L 30.164062 19.402344 L 30.164062 12.300781 Z M 19.542969 12.300781 "
    />
  </g>
</svg>