<svg width="56" height="31" viewBox="0 0 56 31" fill="none" xmlns="http://www.w3.org/2000/svg">
<path fill-rule="evenodd" clip-rule="evenodd" d="M23.2538 15.2071C23.2278 15.2957 23.1558 15.3795 23.0785 15.4182C23.0497 15.4326 23.0131 15.4437 22.9635 15.4536C22.9571 15.4549 22.9506 15.4555 22.944 15.4554C21.8049 15.4372 20.6655 15.338 19.5436 15.1489C19.2138 15.4217 18.8917 15.702 18.5772 15.9965C18.8908 16.2829 19.2055 16.5555 19.5348 16.8278C20.6648 16.6474 21.8046 16.5392 22.9539 16.5301L22.9547 16.5301C22.9974 16.5301 23.0455 16.5431 23.0756 16.5532C23.3089 16.6309 23.3013 16.9796 23.1518 17.1335C23.0948 17.2017 23.0044 17.2371 22.9189 17.2374C22.0219 17.2543 21.1329 17.3181 20.2448 17.436C20.9521 17.9719 21.6905 18.4758 22.46 18.9407C22.4611 18.9414 22.4623 18.9421 22.4634 18.9429L22.4672 18.9454C22.4909 18.9611 22.5287 18.9862 22.5571 19.025C22.5954 19.066 22.6094 19.1079 22.6184 19.135L22.6191 19.1372C22.6222 19.1466 22.6238 19.1564 22.6238 19.1662C22.6238 19.1715 22.6242 19.1748 22.6248 19.1804C22.6253 19.1857 22.6261 19.1929 22.627 19.2056C22.6283 19.2228 22.6297 19.2525 22.6204 19.2831C22.6105 19.3223 22.5982 19.3611 22.5716 19.4009C22.5683 19.4059 22.5644 19.4106 22.5601 19.4149C22.5548 19.4203 22.5492 19.4263 22.5418 19.4343L22.5417 19.4344C22.5348 19.4418 22.5265 19.4508 22.5176 19.4597C22.5001 19.4772 22.4758 19.4991 22.4444 19.5148C22.3948 19.5396 22.3439 19.552 22.2838 19.552C22.2284 19.552 22.162 19.5414 22.1043 19.5001C21.1306 18.9178 20.2017 18.2726 19.3264 17.5644C18.932 17.6311 18.5373 17.7124 18.1419 17.8018C18.2596 18.2427 18.385 18.6824 18.5252 19.1145C19.5533 19.5077 20.5453 19.9726 21.51 20.5002C21.5123 20.5015 21.5146 20.5029 21.5168 20.5043C21.518 20.5052 21.5193 20.506 21.5206 20.5069C21.5445 20.5227 21.5828 20.5481 21.6112 20.5875C21.6303 20.6094 21.6409 20.6343 21.647 20.65C21.6519 20.6628 21.6571 20.6791 21.6605 20.6899C21.6617 20.6936 21.6626 20.6966 21.6633 20.6987C21.6664 20.7081 21.668 20.7179 21.668 20.7277C21.668 20.733 21.6684 20.7363 21.669 20.7419C21.6696 20.7472 21.6703 20.7544 21.6712 20.7671C21.6725 20.7843 21.6739 20.814 21.6646 20.8446C21.6551 20.8823 21.6433 20.9195 21.6189 20.9577C21.5756 21.0397 21.4962 21.0875 21.4176 21.11C21.4136 21.1111 21.4095 21.112 21.4053 21.1126C21.3243 21.1242 21.2408 21.1129 21.1674 21.0763C21.1664 21.0757 21.1653 21.0752 21.1643 21.0746C20.3923 20.6507 19.6045 20.2738 18.8007 19.9368C19.1146 20.8042 19.4755 21.662 19.8759 22.488C19.8765 22.4893 19.8771 22.4906 19.8777 22.4919C19.878 22.4926 19.8783 22.4932 19.8785 22.4939C19.8999 22.5472 19.9127 22.5957 19.9127 22.6566C19.9127 22.7168 19.885 22.7796 19.8662 22.8171C19.8638 22.822 19.8609 22.8267 19.8575 22.8311C19.8562 22.8329 19.8549 22.8347 19.8535 22.8365C19.8291 22.8692 19.7899 22.9217 19.7332 22.95C19.6836 22.9748 19.6328 22.9873 19.5726 22.9873C19.5231 22.9873 19.4555 22.9753 19.398 22.9322C19.3479 22.8946 19.3118 22.8458 19.2883 22.7987L19.2881 22.7984C18.778 21.7697 18.3399 20.696 17.9826 19.6041C17.5396 19.4382 17.0888 19.2871 16.6297 19.144C16.5358 19.4746 16.4553 19.8117 16.3819 20.1433C17.1543 21.0731 17.8547 22.0567 18.4831 23.0943C18.5344 23.1723 18.5467 23.2639 18.5214 23.3524C18.521 23.3537 18.5207 23.3549 18.5202 23.3562C18.4964 23.4277 18.4483 23.5008 18.3737 23.5505C18.3388 23.5738 18.2931 23.5878 18.2699 23.5949C18.2658 23.5961 18.2624 23.5971 18.2599 23.598C18.2135 23.6135 18.1563 23.6135 18.1099 23.598C18.0704 23.5848 18.0338 23.5604 18.009 23.5438L18.0053 23.5413C17.9621 23.5126 17.9347 23.4714 17.918 23.4462L17.9154 23.4424C17.915 23.4418 17.9147 23.4412 17.9143 23.4406C17.9139 23.44 17.9135 23.4393 17.9131 23.4387C17.3981 22.5808 16.8349 21.7633 16.216 20.9862C16.035 21.9558 15.9113 22.9329 15.8598 23.9176C15.859 24.0098 15.8183 24.0863 15.7593 24.1453C15.6998 24.2048 15.6223 24.2457 15.5289 24.2457C15.4862 24.2457 15.4381 24.2326 15.4079 24.2226C15.364 24.2079 15.3184 24.1783 15.287 24.1313L15.2845 24.1276C15.268 24.1028 15.2435 24.0662 15.2303 24.0267C15.2163 23.9845 15.2164 23.9347 15.2164 23.9098L15.2164 23.9058C15.2164 23.9052 15.2164 23.9046 15.2165 23.904C15.2165 23.9032 15.2165 23.9024 15.2165 23.9016C15.2712 22.6987 15.434 21.4964 15.6779 20.3212C15.4516 20.0547 15.2265 19.7908 14.9888 19.5401C14.6913 19.8718 14.4015 20.2037 14.1194 20.5426C14.3088 21.6542 14.4172 22.7833 14.4536 23.912C14.4536 23.913 14.4536 23.914 14.4536 23.915C14.4536 23.9562 14.4415 24.0025 14.4316 24.0327C14.4187 24.0816 14.3946 24.1201 14.3686 24.148C14.3375 24.1907 14.2945 24.2179 14.253 24.2318C14.2228 24.2418 14.1747 24.2548 14.132 24.2548C14.0802 24.2548 14.0407 24.2417 14.0132 24.2325L14.011 24.2318C14.0033 24.2292 13.9959 24.2256 13.9891 24.2211L13.9855 24.2186C13.9628 24.2035 13.9322 24.1832 13.908 24.1607C13.8654 24.1296 13.8381 24.0866 13.8242 24.0451C13.8143 24.0153 13.8014 23.968 13.8011 23.9257C13.7757 23.0279 13.6953 22.1298 13.5671 21.2388C13.0226 21.9469 12.518 22.6862 12.0605 23.4567C12.0588 23.4595 12.057 23.4623 12.055 23.4649C12.0537 23.4666 12.0523 23.4684 12.051 23.4703C12.0277 23.5015 11.991 23.5507 11.9384 23.5797C11.8842 23.6182 11.8288 23.6303 11.7701 23.6303C11.7212 23.6303 11.6548 23.6186 11.5978 23.5769C11.5971 23.5764 11.5965 23.576 11.5959 23.5756C11.5719 23.5597 11.5337 23.5343 11.5052 23.4949C11.4862 23.4731 11.4755 23.4482 11.4695 23.4325C11.4645 23.4196 11.4594 23.4034 11.456 23.3926C11.4548 23.3889 11.4538 23.3858 11.4531 23.3837C11.45 23.3744 11.4484 23.3646 11.4484 23.3547V23.2628C11.4484 23.2083 11.4628 23.1638 11.49 23.1222C12.0639 22.1573 12.7098 21.2284 13.4187 20.353C13.3521 19.9593 13.2706 19.5655 13.1745 19.1717C12.7886 19.2878 12.4032 19.4116 12.0181 19.5497C11.6521 20.6685 11.2139 21.7694 10.6946 22.8257C10.6939 22.8271 10.6932 22.8285 10.6924 22.8298C10.6919 22.8307 10.6914 22.8316 10.6909 22.8325C10.6563 22.8901 10.6201 22.9262 10.5753 22.9597C10.5728 22.9616 10.5702 22.9634 10.5675 22.965C10.5073 23.0011 10.4542 23.0148 10.3915 23.0148C10.3389 23.0148 10.2882 23.0016 10.2402 22.9776C10.2367 22.9759 10.2334 22.974 10.2303 22.9719C10.2291 22.9711 10.2278 22.9702 10.2265 22.9694C10.2027 22.9535 10.1646 22.9283 10.1362 22.8892C10.1065 22.856 10.0849 22.8084 10.0746 22.7775C10.0738 22.7753 10.0732 22.773 10.0726 22.7708C10.0607 22.723 10.0607 22.6858 10.0607 22.6499V22.6474C10.0607 22.6058 10.073 22.5538 10.0998 22.5106C10.5186 21.6474 10.8894 20.7605 11.2048 19.8572C10.3729 20.1875 9.55808 20.5653 8.77512 20.9904C8.73154 21.0182 8.67855 21.0308 8.63619 21.0308C8.63495 21.0308 8.63362 21.0308 8.63222 21.0308C8.60727 21.0309 8.55742 21.031 8.51523 21.0169C8.48214 21.0059 8.42969 20.9819 8.39659 20.9488C8.37162 20.9239 8.34887 20.8897 8.3324 20.865L8.32997 20.8614C8.30043 20.8171 8.28696 20.7622 8.28696 20.7185C8.28696 20.7173 8.28696 20.716 8.28695 20.7146C8.2869 20.6896 8.2868 20.6398 8.30087 20.5977C8.31404 20.5581 8.33848 20.5216 8.35505 20.4968C8.3559 20.4955 8.35673 20.4943 8.35754 20.4931C8.38634 20.4499 8.42753 20.4226 8.45278 20.4058C8.45408 20.4049 8.45534 20.4041 8.45655 20.4033C8.45869 20.4019 8.46089 20.4005 8.46315 20.3993C9.43772 19.8622 10.448 19.4061 11.4851 19.022C11.616 18.6177 11.7324 18.2058 11.841 17.7927C11.4455 17.7033 11.0506 17.622 10.6562 17.5553C9.78087 18.2634 8.85195 18.9086 7.87828 19.4909C7.82058 19.5323 7.75411 19.5428 7.69878 19.5428C7.64946 19.5428 7.58917 19.5311 7.53821 19.5056C7.49474 19.4839 7.43947 19.4463 7.40778 19.3868C7.38639 19.3527 7.37335 19.3101 7.36658 19.2879C7.36533 19.2839 7.36429 19.2805 7.36346 19.278C7.34798 19.2316 7.34798 19.1744 7.36346 19.128C7.37663 19.0885 7.40107 19.052 7.41764 19.0272L7.42013 19.0234C7.44893 18.9803 7.49012 18.9529 7.51536 18.9362C7.51666 18.9353 7.51792 18.9345 7.51914 18.9337C7.52027 18.9329 7.52142 18.9322 7.52258 18.9315C8.29336 18.4659 9.04036 17.9613 9.74914 17.4178C8.8585 17.2985 7.96112 17.2275 7.06417 17.219C7.02305 17.2189 6.977 17.2068 6.94686 17.197C6.89589 17.1835 6.85108 17.1562 6.81916 17.1126C6.78749 17.0797 6.76181 17.0423 6.74771 17L6.74698 16.9978C6.73779 16.9703 6.72461 16.9309 6.72461 16.8791C6.72461 16.7821 6.76132 16.6942 6.82505 16.6305C6.88752 16.568 6.97495 16.5301 7.06465 16.5301H7.06538C8.2142 16.5392 9.36307 16.6384 10.4942 16.8275C10.8165 16.5627 11.1373 16.2911 11.4438 16.0056C11.1367 15.7113 10.8148 15.4309 10.4845 15.1577C9.35453 15.3381 8.21476 15.4463 7.06538 15.4554L7.06465 15.4554C7.02193 15.4554 6.9738 15.4424 6.94369 15.4323C6.90226 15.4185 6.85938 15.3914 6.82834 15.349C6.79667 15.3161 6.771 15.2788 6.7569 15.2365C6.75615 15.2342 6.75549 15.232 6.75492 15.2297C6.75379 15.2252 6.75251 15.2203 6.75115 15.2152C6.74363 15.1869 6.7338 15.1498 6.7338 15.1064C6.7338 15.017 6.77148 14.9348 6.81357 14.8717C6.81692 14.8667 6.82077 14.862 6.82505 14.8577C6.88451 14.7983 6.96181 14.7575 7.05502 14.7574C7.96144 14.7489 8.86002 14.6855 9.75805 14.5673C9.04903 14.0225 8.30209 13.5102 7.53177 13.0449C7.52833 13.0428 7.52503 13.0405 7.5219 13.038C7.46108 12.9893 7.41458 12.9189 7.39103 12.8483C7.36285 12.7638 7.37833 12.6702 7.42932 12.5938C7.47665 12.5229 7.53978 12.4713 7.62758 12.4462C7.71624 12.4209 7.80419 12.434 7.87774 12.4708C7.87999 12.4719 7.8822 12.4731 7.88435 12.4744C8.85915 13.0662 9.78897 13.721 10.6738 14.4388C11.0698 14.3646 11.4637 14.2902 11.8503 14.2023C11.7325 13.7532 11.6067 13.3117 11.4661 12.8706C10.4388 12.4688 9.43867 12.0044 8.48329 11.4861C8.39894 11.4433 8.35006 11.3628 8.32726 11.283C8.32611 11.279 8.32524 11.2749 8.32464 11.2708C8.31464 11.2008 8.31046 11.1075 8.36673 11.0231C8.36754 11.0219 8.36837 11.0207 8.36924 11.0194C8.38503 10.9956 8.41023 10.9577 8.44923 10.9293C8.4899 10.8923 8.54036 10.8768 8.5631 10.8698C8.566 10.8689 8.56845 10.8682 8.57037 10.8675C8.5726 10.8668 8.57486 10.8661 8.57714 10.8656C8.62493 10.8536 8.66215 10.8536 8.69802 10.8536H8.70052C8.75452 10.8536 8.79879 10.8677 8.84001 10.8944C9.60349 11.3182 10.3904 11.7026 11.2006 12.0404C10.8876 11.1723 10.5346 10.3142 10.1342 9.48836C10.1336 9.48709 10.133 9.4858 10.1324 9.48449C10.0989 9.40629 10.0845 9.31989 10.1102 9.23019C10.1348 9.14387 10.1953 9.06896 10.272 9.02881C10.3154 9.00154 10.3679 8.98905 10.4099 8.98905C10.4112 8.98905 10.4125 8.98905 10.4139 8.98905C10.4388 8.989 10.4887 8.98889 10.5309 9.00295C10.5704 9.01612 10.607 9.04054 10.6318 9.05711C10.6331 9.05796 10.6343 9.05879 10.6355 9.05959C10.6405 9.06295 10.6452 9.06679 10.6495 9.07107C10.6745 9.09603 10.6972 9.13018 10.7137 9.15491C10.7145 9.15615 10.7154 9.15736 10.7161 9.15855C10.7184 9.16199 10.7205 9.16558 10.7223 9.1693C11.2232 10.1978 11.6612 11.2714 12.0185 12.3634C12.4517 12.5288 12.8928 12.6794 13.342 12.8221C13.4308 12.4897 13.5181 12.152 13.5916 11.8146C12.8283 10.885 12.1279 9.90123 11.5083 8.86326C11.486 8.82868 11.4724 8.78441 11.4655 8.76171C11.4642 8.75762 11.4632 8.75424 11.4623 8.75173C11.4483 8.70962 11.447 8.65868 11.4584 8.61494C11.4612 8.58803 11.4704 8.56524 11.4788 8.54842C11.4883 8.52943 11.5003 8.51152 11.5087 8.49887L11.5098 8.49721C11.5386 8.45403 11.5798 8.4267 11.605 8.40995C11.6063 8.40909 11.6076 8.40825 11.6088 8.40744C11.6437 8.38419 11.6894 8.37021 11.7127 8.36311C11.7167 8.36186 11.7201 8.36082 11.7226 8.35999C11.7679 8.34491 11.8233 8.34453 11.8691 8.35884C11.8946 8.36553 11.9159 8.37488 11.9315 8.3821C11.936 8.38415 11.9397 8.3859 11.943 8.38742C11.9536 8.39237 11.9589 8.39483 11.9646 8.39673C11.9723 8.39931 11.9797 8.40291 11.9865 8.40744C12.0297 8.43623 12.057 8.47739 12.0738 8.50262C12.0747 8.50392 12.0755 8.50518 12.0763 8.5064C12.0772 8.5078 12.0781 8.50922 12.079 8.51067C12.5848 9.3675 13.1469 10.1843 13.7578 10.9611C13.9375 9.99989 14.0531 9.02309 14.1045 8.03819C14.1047 8.03545 14.105 8.03271 14.1053 8.02999C14.1173 7.94602 14.154 7.87267 14.214 7.81269C14.2824 7.74437 14.3734 7.7215 14.4536 7.7215C14.5408 7.7215 14.6241 7.75741 14.6742 7.79498C14.6804 7.79962 14.686 7.80503 14.6908 7.81108C14.7381 7.87014 14.7753 7.95412 14.7753 8.04298C14.7753 8.04459 14.7753 8.0462 14.7752 8.0478C14.7114 9.25883 14.5576 10.4522 14.3049 11.6278C14.5306 11.8923 14.7632 12.1502 14.9972 12.4084C15.3009 12.0851 15.5904 11.7541 15.8723 11.4153C15.683 10.3037 15.5747 9.17444 15.5473 8.0452L15.5473 8.04298C15.5473 7.96276 15.5702 7.87183 15.6385 7.80351C15.6981 7.74399 15.7756 7.70312 15.869 7.70312C15.9117 7.70312 15.9598 7.71618 15.9899 7.72621C15.9977 7.72879 16.005 7.73239 16.0118 7.73692L16.0155 7.73934C16.0382 7.75444 16.0687 7.77479 16.0929 7.79731C16.1356 7.82835 16.1629 7.87135 16.1767 7.91289C16.1866 7.94264 16.1995 7.98998 16.1998 8.03229C16.2253 8.93002 16.3057 9.82015 16.4338 10.71C16.9784 10.0019 17.4831 9.26314 17.9407 8.50091C17.9414 8.49966 17.9422 8.49843 17.943 8.49721C17.9438 8.496 17.9447 8.49474 17.9455 8.49344C17.9613 8.46973 17.9864 8.43197 18.0252 8.40362C18.0662 8.36531 18.1081 8.35136 18.1352 8.34236L18.1375 8.34162C18.1468 8.3385 18.1566 8.3369 18.1665 8.3369C18.1718 8.3369 18.1751 8.33655 18.1807 8.33594C18.186 8.33538 18.1932 8.3346 18.2059 8.33369C18.2231 8.33247 18.2528 8.33106 18.2834 8.34033C18.3211 8.34985 18.3584 8.36159 18.3966 8.38599C18.4787 8.42925 18.5265 8.50862 18.549 8.58723C18.5499 8.59056 18.5507 8.59394 18.5513 8.59736C18.5635 8.67067 18.5519 8.76393 18.5152 8.83724C18.5142 8.83942 18.513 8.84155 18.5117 8.84364C17.9288 9.80863 17.2827 10.7288 16.5736 11.5954C16.6482 11.9983 16.7301 12.4009 16.8194 12.7966C17.203 12.6871 17.5872 12.5572 17.9737 12.4257C18.34 11.2888 18.7873 10.1788 19.3157 9.11359L19.3158 9.11331C19.3606 9.02374 19.4468 8.98619 19.5068 8.96621C19.5914 8.93804 19.6722 8.95448 19.7424 8.98956C19.7482 8.99246 19.7537 8.99595 19.7587 8.99999C19.8074 9.03895 19.8716 9.09885 19.8988 9.18045C19.8992 9.18171 19.8996 9.18298 19.9 9.18426C19.9226 9.26359 19.9239 9.34703 19.8988 9.42225C19.8975 9.42603 19.896 9.42973 19.8943 9.43331C19.4652 10.3167 19.0845 11.2158 18.7597 12.1382C19.6011 11.8082 20.4189 11.4375 21.2205 11.0114C21.2234 11.0098 21.2264 11.0084 21.2295 11.0072C21.2991 10.9794 21.3862 10.9813 21.4581 11.0053C21.5335 11.0304 21.5989 11.0816 21.6384 11.1585C21.6774 11.2255 21.6878 11.3106 21.6761 11.3821C21.6622 11.4771 21.6071 11.5417 21.5508 11.5867C21.5465 11.5902 21.5418 11.5933 21.5369 11.5959C20.5537 12.1236 19.5346 12.5795 18.4886 12.9635C18.3665 13.3492 18.2585 13.7356 18.1513 14.13C18.5554 14.2267 18.9603 14.3091 19.373 14.3839C20.24 13.6842 21.1605 13.0477 22.1165 12.4653C22.1187 12.464 22.1209 12.4627 22.1232 12.4616C22.1968 12.4248 22.2847 12.4117 22.3734 12.437C22.4612 12.4621 22.5243 12.5137 22.5716 12.5846C22.5737 12.5878 22.5757 12.5911 22.5774 12.5945C22.6076 12.6549 22.6378 12.7341 22.6128 12.8293C22.5974 12.9233 22.5411 12.9878 22.4726 13.0335C22.4714 13.0343 22.4702 13.0351 22.4689 13.0358C21.7081 13.4921 20.9782 13.9953 20.2793 14.5312C21.1608 14.6504 22.049 14.7213 22.9368 14.7298C22.9779 14.7299 23.0239 14.742 23.0541 14.7518C23.1051 14.7653 23.1499 14.7926 23.1818 14.8362C23.2135 14.8691 23.2391 14.9065 23.2532 14.9488C23.254 14.951 23.2546 14.9532 23.2552 14.9555C23.2563 14.9601 23.2576 14.9649 23.259 14.97C23.2665 14.9984 23.2763 15.0354 23.2763 15.0788C23.2763 15.1285 23.2644 15.1751 23.2538 15.2071ZM17.6688 17.2053C17.6715 17.2044 17.6742 17.2037 17.677 17.203C17.7516 17.1857 17.8259 17.1683 17.9001 17.151C18.1563 17.0912 18.4101 17.0319 18.6632 16.976C18.3804 16.7342 18.1047 16.48 17.836 16.2194L17.835 16.2185C17.7755 16.1589 17.7346 16.0815 17.7346 15.9882C17.7346 15.8948 17.7755 15.8174 17.835 15.7579C17.8357 15.7573 17.8363 15.7566 17.837 15.756C18.1142 15.4948 18.3916 15.2402 18.6809 14.9864C18.3451 14.9192 18.0098 14.8401 17.675 14.7545C17.6729 14.7539 17.6708 14.7533 17.6688 14.7526C17.6292 14.7395 17.5927 14.715 17.5678 14.6985L17.5641 14.696C17.5209 14.6672 17.4936 14.6261 17.4768 14.6008C17.476 14.5995 17.4751 14.5983 17.4743 14.597C17.4698 14.5903 17.4662 14.5829 17.4636 14.5751C17.4626 14.5722 17.4611 14.5684 17.4581 14.5615C17.4556 14.5555 17.4514 14.5461 17.4478 14.5366C17.4409 14.5188 17.4334 14.495 17.4317 14.4663C17.422 14.4217 17.421 14.3725 17.4346 14.3285C17.522 13.9636 17.6164 13.598 17.7237 13.2378C17.3673 13.3548 17.015 13.4643 16.6554 13.5602C16.6477 13.5622 16.6397 13.5633 16.6317 13.5633H16.5766C16.5164 13.5633 16.4286 13.5544 16.3646 13.4905C16.3631 13.489 16.3616 13.4875 16.36 13.4859C16.3265 13.4525 16.2721 13.3984 16.2569 13.3161C16.171 12.9725 16.0918 12.6225 16.0192 12.2774C15.7599 12.5763 15.4891 12.8628 15.2198 13.1478L15.2189 13.1487C15.2183 13.1494 15.2177 13.15 15.2171 13.1506C15.1575 13.2101 15.0801 13.251 14.9867 13.251C14.9044 13.251 14.8174 13.2117 14.7563 13.1506C14.7555 13.1499 14.7548 13.1491 14.7541 13.1483C14.5364 12.9153 14.3254 12.6823 14.1154 12.4437C14.0434 12.7367 13.9651 13.0296 13.8802 13.3224C13.8794 13.3254 13.8784 13.3282 13.8773 13.331C13.8557 13.3849 13.8183 13.4525 13.7473 13.4951C13.6932 13.5275 13.6307 13.5541 13.553 13.5541H13.4887C13.4797 13.5541 13.4708 13.5528 13.4623 13.5502C13.0587 13.4292 12.6547 13.301 12.2504 13.1594C12.3672 13.5537 12.4707 13.9486 12.5671 14.3501C12.5688 14.3572 12.5696 14.3644 12.5696 14.3716C12.5696 14.3801 12.5702 14.3854 12.5709 14.3935C12.5715 14.399 12.5721 14.4057 12.5728 14.4156C12.5742 14.4339 12.5747 14.4568 12.5694 14.4834C12.5676 14.534 12.5529 14.576 12.5266 14.6154C12.5258 14.6166 12.525 14.6179 12.5241 14.6192C12.5074 14.6444 12.48 14.6856 12.4368 14.7144C12.3989 14.7396 12.3613 14.7521 12.3348 14.761L12.3322 14.7618C12.3296 14.7627 12.327 14.7634 12.3244 14.764C11.9987 14.8415 11.6651 14.9194 11.33 14.9862C11.6136 15.2329 11.8959 15.4868 12.1649 15.7477L12.1659 15.7487C12.2255 15.8082 12.2664 15.8856 12.2664 15.979C12.2664 16.0723 12.2255 16.1497 12.1659 16.2093L12.1649 16.2102C11.8951 16.472 11.6187 16.7198 11.3363 16.9652C11.6661 17.035 11.9917 17.107 12.3175 17.1921C12.3451 17.1946 12.3684 17.204 12.3856 17.2126C12.4046 17.2221 12.4225 17.2341 12.4352 17.2425L12.4368 17.2436C12.48 17.2724 12.5074 17.3135 12.5241 17.3388C12.525 17.3401 12.5258 17.3413 12.5266 17.3426C12.5312 17.3494 12.5348 17.3567 12.5374 17.3645L12.5376 17.3651C12.5467 17.3926 12.5568 17.4229 12.5669 17.4631C12.5787 17.5102 12.5809 17.5635 12.5664 17.6108C12.4782 17.987 12.3763 18.3627 12.2667 18.7379C12.6166 18.6211 12.9683 18.5118 13.3271 18.4162C13.33 18.4154 13.3328 18.4148 13.3357 18.4143C13.4104 18.4019 13.4944 18.4143 13.5665 18.4503C13.5699 18.452 13.5732 18.4539 13.5764 18.456C13.6474 18.5033 13.699 18.5664 13.7241 18.6542C13.7243 18.655 13.7245 18.6558 13.7247 18.6567C13.811 18.9936 13.8905 19.3435 13.9633 19.6894C14.2205 19.3907 14.4843 19.1043 14.7544 18.8184C14.7547 18.8182 14.7549 18.8179 14.7552 18.8177C14.7555 18.8173 14.7559 18.8169 14.7563 18.8166C14.8158 18.757 14.8933 18.7162 14.9867 18.7162C15.0801 18.7162 15.1575 18.757 15.2171 18.8166L15.2182 18.8177C15.4365 19.0436 15.648 19.2759 15.8581 19.5144C15.9301 19.2235 16.0084 18.9371 16.0931 18.6447C16.0935 18.6435 16.0938 18.6424 16.0942 18.6412C16.1074 18.6017 16.1319 18.5651 16.1484 18.5403L16.1509 18.5366C16.1797 18.4935 16.2209 18.4661 16.2461 18.4494C16.2474 18.4485 16.2487 18.4477 16.2499 18.4469C16.2942 18.4173 16.3491 18.4039 16.3928 18.4039C16.394 18.4039 16.3954 18.4039 16.3968 18.4039C16.4214 18.4038 16.4702 18.4037 16.512 18.4172C16.9263 18.539 17.3403 18.675 17.7539 18.8189C17.6415 18.4231 17.5307 18.0202 17.4338 17.617C17.4322 17.61 17.4313 17.6028 17.4313 17.5956C17.4313 17.587 17.4308 17.5817 17.43 17.5737C17.4295 17.5682 17.4288 17.5615 17.4281 17.5516C17.4268 17.5333 17.4263 17.5103 17.4315 17.4837C17.4333 17.4332 17.448 17.3911 17.4743 17.3517C17.4751 17.3505 17.476 17.3493 17.4768 17.348C17.4936 17.3227 17.5209 17.2816 17.5641 17.2528C17.602 17.2275 17.6396 17.215 17.6662 17.2062L17.6688 17.2053Z" fill="black"/>
<path d="M32.9997 12.5195L31.7972 17.5873H31.7339L30.441 12.5195H29.2565L27.9636 17.5781H27.9003L26.6887 12.5195H25.3867L27.2764 19.4065H28.4789L29.8261 14.5708H29.8804L31.2185 19.4065H32.4211L34.3108 12.5195H32.9997Z" fill="black"/>
<path d="M37.846 14.5522C37.6471 14.4223 37.4301 14.3202 37.186 14.2645C36.9419 14.2088 36.7068 14.1809 36.4627 14.1809C36.11 14.1809 35.7936 14.2366 35.5043 14.3387C35.2149 14.4408 34.9708 14.5986 34.7629 14.8121C34.5639 15.0256 34.4193 15.2855 34.3289 15.601L35.4319 15.7588C35.4952 15.5825 35.6037 15.4247 35.7755 15.2947C35.9473 15.1648 36.1733 15.0998 36.4627 15.0998C36.7339 15.0998 36.9509 15.1648 37.0956 15.304C37.2402 15.4433 37.3126 15.6382 37.3126 15.8888V15.9073C37.3126 16.028 37.2674 16.1115 37.186 16.1672C37.1046 16.2229 36.969 16.26 36.7882 16.2879C36.6073 16.3157 36.3632 16.3436 36.0739 16.3714C35.8298 16.3993 35.5947 16.4457 35.3596 16.5014C35.1336 16.5571 34.9256 16.6499 34.7448 16.7613C34.5639 16.8726 34.4193 17.0304 34.3198 17.2161C34.2113 17.411 34.1661 17.643 34.1661 17.94C34.1661 18.2742 34.2384 18.5619 34.3831 18.7939C34.5278 19.026 34.7357 19.2023 34.9889 19.323C35.2421 19.4437 35.5314 19.4994 35.8478 19.4994C36.11 19.4994 36.3361 19.4622 36.535 19.388C36.7339 19.3137 36.8967 19.2116 37.0233 19.091C37.1498 18.961 37.2583 18.8311 37.3307 18.6918H37.3668V19.4065H38.5061V15.9537C38.5061 15.6103 38.4428 15.3226 38.3252 15.0998C38.1987 14.8678 38.045 14.6822 37.846 14.5522ZM37.3216 17.5502C37.3216 17.7451 37.2764 17.9122 37.177 18.0793C37.0865 18.237 36.9509 18.367 36.7701 18.4691C36.5983 18.5619 36.3903 18.6176 36.1553 18.6176C35.9111 18.6176 35.7032 18.5619 35.5495 18.4505C35.3867 18.3391 35.3144 18.1628 35.3144 17.94C35.3144 17.7822 35.3506 17.6523 35.4319 17.5595C35.5133 17.4574 35.6218 17.3831 35.7665 17.3274C35.9021 17.2717 36.0648 17.2346 36.2457 17.2068C36.327 17.1975 36.4175 17.1789 36.526 17.1696C36.6345 17.1511 36.743 17.1325 36.8515 17.114C36.96 17.0954 37.0594 17.0675 37.1498 17.0397C37.2402 17.0119 37.3035 16.984 37.3397 16.9562V17.5502H37.3216Z" fill="black"/>
<path d="M43.9762 14.2459H42.5929L40.7846 16.3157H40.7032V12.5195H39.5097V19.4065H40.7032V17.6709L41.1281 17.1975L42.6742 19.4065H44.0847L42.0233 16.4735L43.9762 14.2459Z" fill="black"/>
<path d="M47.7827 14.2459V17.2346C47.7827 17.4945 47.7285 17.7173 47.62 17.8936C47.5115 18.07 47.3849 18.1999 47.2131 18.2835C47.0504 18.367 46.8786 18.4134 46.7068 18.4134C46.4265 18.4134 46.1914 18.3206 46.0196 18.1257C45.8478 17.9308 45.7574 17.6709 45.7574 17.346V14.2459H44.573V17.5317C44.573 17.94 44.6453 18.2927 44.79 18.5898C44.9346 18.8775 45.1245 19.1003 45.3777 19.2488C45.6308 19.3973 45.9202 19.4715 46.2547 19.4715C46.6345 19.4715 46.9509 19.3787 47.2041 19.1931C47.4663 19.0074 47.6471 18.7754 47.7647 18.4877H47.8189V19.4066H48.9672V14.2459H47.7827Z" fill="black"/>
</svg>
