<svg width="40" height="42" viewBox="0 0 40 42" fill="none" xmlns="http://www.w3.org/2000/svg">
<path fill-rule="evenodd" clip-rule="evenodd" d="M28.5255 14.7034C28.4986 14.7949 28.4242 14.8815 28.3443 14.9214C28.3146 14.9363 28.2768 14.9478 28.2255 14.9581C28.2189 14.9594 28.2121 14.96 28.2054 14.9599C27.0283 14.9411 25.8509 14.8386 24.6916 14.6432C24.3508 14.9251 24.0179 15.2147 23.693 15.519C24.0171 15.815 24.3423 16.0967 24.6825 16.378C25.8502 16.1917 27.0279 16.0798 28.2156 16.0704L28.2164 16.0704C28.2605 16.0704 28.3103 16.0839 28.3414 16.0943C28.5824 16.1746 28.5746 16.5349 28.4201 16.6939C28.3612 16.7644 28.2678 16.801 28.1794 16.8013C27.2525 16.8188 26.3339 16.8847 25.4162 17.0066C26.147 17.5603 26.91 18.081 27.7052 18.5614C27.7064 18.5621 27.7076 18.5628 27.7088 18.5636L27.7127 18.5662C27.7372 18.5825 27.7762 18.6084 27.8055 18.6484C27.8451 18.6908 27.8595 18.7342 27.8689 18.7621L27.8696 18.7644C27.8729 18.7741 27.8745 18.7842 27.8745 18.7944C27.8745 18.7999 27.8749 18.8033 27.8755 18.8091C27.8761 18.8145 27.8769 18.822 27.8778 18.8351C27.8791 18.8529 27.8805 18.8835 27.871 18.9152C27.8607 18.9557 27.848 18.9958 27.8206 19.0369C27.8171 19.0421 27.8131 19.047 27.8087 19.0514C27.8031 19.0569 27.7973 19.0632 27.7898 19.0714L27.7896 19.0715C27.7825 19.0792 27.774 19.0885 27.7648 19.0977C27.7466 19.1158 27.7215 19.1384 27.689 19.1546C27.6378 19.1802 27.5853 19.1931 27.5231 19.1931C27.4659 19.1931 27.3973 19.1821 27.3376 19.1394C26.3315 18.5377 25.3716 17.871 24.4672 17.1392C24.0597 17.2082 23.6518 17.2922 23.2432 17.3845C23.3648 17.8401 23.4944 18.2945 23.6393 18.7409C24.7016 19.1473 25.7266 19.6277 26.7235 20.1729C26.7259 20.1742 26.7283 20.1756 26.7306 20.1771C26.7319 20.178 26.7332 20.1788 26.7345 20.1797C26.7592 20.1961 26.7988 20.2224 26.8282 20.2631C26.8478 20.2857 26.8588 20.3114 26.8651 20.3276C26.8702 20.3409 26.8755 20.3577 26.8791 20.3689C26.8803 20.3727 26.8813 20.3758 26.882 20.378C26.8852 20.3876 26.8868 20.3978 26.8868 20.408C26.8868 20.4134 26.8872 20.4168 26.8878 20.4226C26.8884 20.4281 26.8892 20.4355 26.8902 20.4487C26.8914 20.4664 26.8929 20.4971 26.8833 20.5287C26.8735 20.5677 26.8613 20.6062 26.8361 20.6456C26.7914 20.7304 26.7093 20.7798 26.628 20.803C26.6239 20.8042 26.6197 20.8051 26.6154 20.8057C26.5316 20.8176 26.4454 20.806 26.3695 20.7681C26.3684 20.7676 26.3674 20.767 26.3663 20.7664C25.5686 20.3284 24.7545 19.9389 23.924 19.5906C24.2483 20.487 24.6212 21.3734 25.035 22.2269C25.0356 22.2282 25.0363 22.2296 25.0368 22.231C25.0371 22.2317 25.0374 22.2323 25.0377 22.233C25.0597 22.2881 25.073 22.3382 25.073 22.4012C25.073 22.4633 25.0443 22.5283 25.025 22.567C25.0224 22.5721 25.0194 22.5769 25.016 22.5815C25.0147 22.5833 25.0133 22.5851 25.0118 22.5871C24.9867 22.6208 24.9461 22.6751 24.8875 22.7044C24.8363 22.73 24.7837 22.7429 24.7216 22.7429C24.6704 22.7429 24.6006 22.7305 24.5412 22.6859C24.4893 22.647 24.4521 22.5966 24.4277 22.548L24.4276 22.5477C23.9005 21.4846 23.4477 20.3752 23.0785 19.2469C22.6208 19.0754 22.1549 18.9193 21.6806 18.7714C21.5835 19.1131 21.5003 19.4614 21.4246 19.804C22.2226 20.7648 22.9464 21.7813 23.5958 22.8534C23.6488 22.934 23.6615 23.0287 23.6353 23.1201C23.635 23.1214 23.6346 23.1227 23.6341 23.1241C23.6095 23.1979 23.5598 23.2735 23.4827 23.3249C23.4467 23.3489 23.3994 23.3633 23.3755 23.3707C23.3712 23.372 23.3677 23.373 23.3651 23.3739C23.3172 23.3899 23.2581 23.3899 23.2101 23.3739C23.1693 23.3603 23.1315 23.3351 23.1058 23.3179L23.102 23.3154C23.0573 23.2856 23.0291 23.2431 23.0118 23.217L23.0092 23.2131C23.0088 23.2125 23.0084 23.2119 23.008 23.2113C23.0076 23.2106 23.0072 23.21 23.0068 23.2093C22.4746 22.3228 21.8926 21.4781 21.2531 20.6751C21.066 21.677 20.9382 22.6866 20.885 23.7042C20.8842 23.7994 20.8422 23.8785 20.7812 23.9394C20.7196 24.001 20.6396 24.0432 20.5431 24.0432C20.499 24.0432 20.4492 24.0297 20.4181 24.0193C20.3727 24.0042 20.3255 23.9735 20.2931 23.925L20.2906 23.9211C20.2734 23.8955 20.2482 23.8577 20.2346 23.8169C20.22 23.7733 20.2201 23.7219 20.2202 23.6961L20.2202 23.692C20.2202 23.6914 20.2202 23.6907 20.2202 23.6901C20.2202 23.6893 20.2203 23.6885 20.2203 23.6877C20.2768 22.4447 20.445 21.2022 20.6971 19.9879C20.4632 19.7125 20.2306 19.4398 19.985 19.1808C19.6776 19.5235 19.3781 19.8665 19.0866 20.2167C19.2823 21.3654 19.3943 22.532 19.4319 23.6984C19.432 23.6994 19.432 23.7005 19.432 23.7015C19.432 23.7441 19.4194 23.7919 19.4092 23.8231C19.3959 23.8736 19.371 23.9134 19.3441 23.9423C19.312 23.9863 19.2675 24.0145 19.2246 24.0288C19.1935 24.0392 19.1437 24.0527 19.0996 24.0527C19.0461 24.0527 19.0053 24.0391 18.9769 24.0296L18.9746 24.0288C18.9666 24.0261 18.959 24.0224 18.952 24.0177L18.9482 24.0152C18.9248 23.9996 18.8932 23.9786 18.8682 23.9553C18.8241 23.9233 18.7959 23.8788 18.7816 23.8359C18.7713 23.8052 18.758 23.7563 18.7577 23.7125C18.7314 22.7848 18.6483 21.8568 18.5159 20.9361C17.9532 21.6678 17.4318 22.4317 16.9591 23.2279C16.9573 23.2308 16.9554 23.2337 16.9534 23.2364C16.952 23.2382 16.9506 23.24 16.9492 23.242C16.9252 23.2742 16.8872 23.325 16.8329 23.3551C16.7769 23.3948 16.7196 23.4073 16.659 23.4073C16.6084 23.4073 16.5398 23.3952 16.4809 23.3521C16.4803 23.3516 16.4796 23.3512 16.4789 23.3508C16.4542 23.3343 16.4147 23.3081 16.3853 23.2674C16.3656 23.2448 16.3546 23.2191 16.3483 23.2029C16.3432 23.1896 16.3379 23.1728 16.3344 23.1616C16.3332 23.1578 16.3322 23.1547 16.3315 23.1525C16.3282 23.1428 16.3266 23.1327 16.3266 23.1225V23.0276C16.3266 22.9713 16.3414 22.9252 16.3695 22.8823C16.9626 21.8852 17.63 20.9253 18.3626 20.0208C18.2937 19.6139 18.2095 19.207 18.1101 18.8001C17.7114 18.92 17.3132 19.048 16.9153 19.1907C16.5371 20.3467 16.0843 21.4843 15.5476 22.5759C15.5469 22.5773 15.5462 22.5787 15.5454 22.5801C15.5449 22.5811 15.5444 22.582 15.5438 22.5829C15.5081 22.6424 15.4707 22.6797 15.4244 22.7144C15.4218 22.7163 15.4191 22.7182 15.4163 22.7198C15.3541 22.7571 15.2993 22.7713 15.2345 22.7713C15.1801 22.7713 15.1276 22.7576 15.078 22.7328C15.0745 22.7311 15.0711 22.7291 15.0678 22.7269C15.0666 22.7261 15.0653 22.7252 15.0639 22.7243C15.0393 22.708 15 22.6819 14.9706 22.6415C14.9399 22.6072 14.9176 22.558 14.907 22.5261C14.9062 22.5238 14.9055 22.5215 14.9049 22.5191C14.8926 22.4697 14.8926 22.4313 14.8926 22.3943V22.3917C14.8926 22.3486 14.9053 22.2949 14.9331 22.2503C15.3658 21.3583 15.749 20.4418 16.0749 19.5084C15.2152 19.8498 14.3732 20.2402 13.5642 20.6794C13.5191 20.7081 13.4644 20.7212 13.4206 20.7212C13.4193 20.7212 13.418 20.7212 13.4165 20.7212C13.3907 20.7213 13.3392 20.7214 13.2956 20.7068C13.2614 20.6954 13.2072 20.6706 13.173 20.6364C13.1472 20.6107 13.1237 20.5754 13.1067 20.5498L13.1042 20.5461C13.0737 20.5003 13.0597 20.4436 13.0597 20.3985C13.0597 20.3972 13.0597 20.3958 13.0597 20.3944C13.0597 20.3686 13.0596 20.3171 13.0741 20.2736C13.0877 20.2327 13.113 20.195 13.1301 20.1693C13.131 20.168 13.1318 20.1668 13.1327 20.1655C13.1624 20.1209 13.205 20.0926 13.2311 20.0753C13.2324 20.0744 13.2337 20.0736 13.235 20.0727C13.2372 20.0713 13.2395 20.0699 13.2418 20.0686C14.2489 19.5136 15.2928 19.0423 16.3645 18.6454C16.4997 18.2277 16.62 17.802 16.7322 17.3751C16.3236 17.2827 15.9155 17.1987 15.5079 17.1297C14.6035 17.8615 13.6436 18.5282 12.6374 19.1299C12.5778 19.1727 12.5091 19.1836 12.452 19.1836C12.401 19.1836 12.3387 19.1714 12.286 19.1451C12.2411 19.1227 12.184 19.0838 12.1513 19.0224C12.1292 18.9871 12.1157 18.9431 12.1087 18.9202C12.1074 18.916 12.1063 18.9125 12.1055 18.9099C12.0895 18.8619 12.0895 18.8029 12.1055 18.7549C12.1191 18.7141 12.1443 18.6763 12.1614 18.6507L12.164 18.6469C12.1938 18.6023 12.2363 18.574 12.2624 18.5567C12.2638 18.5558 12.2651 18.555 12.2663 18.5541C12.2675 18.5533 12.2687 18.5526 12.2699 18.5519C13.0664 18.0707 13.8383 17.5494 14.5707 16.9877C13.6503 16.8645 12.723 16.791 11.7962 16.7823C11.7537 16.7822 11.7061 16.7697 11.675 16.7595C11.6223 16.7456 11.576 16.7174 11.543 16.6723C11.5103 16.6383 11.4838 16.5997 11.4692 16.556L11.4684 16.5538C11.4589 16.5253 11.4453 16.4846 11.4453 16.4311C11.4453 16.3308 11.4832 16.24 11.5491 16.1742C11.6137 16.1096 11.704 16.0704 11.7967 16.0704H11.7974C12.9846 16.0798 14.1717 16.1823 15.3406 16.3778C15.6736 16.1041 16.0051 15.8234 16.3218 15.5284C16.0045 15.2243 15.6718 14.9346 15.3306 14.6523C14.1629 14.8387 12.9851 14.9505 11.7974 14.9599L11.7967 14.9599C11.7525 14.9599 11.7028 14.9464 11.6717 14.9361C11.6289 14.9218 11.5846 14.8938 11.5525 14.85C11.5198 14.816 11.4933 14.7774 11.4787 14.7337C11.4779 14.7314 11.4772 14.729 11.4766 14.7267C11.4755 14.722 11.4741 14.717 11.4727 14.7117C11.465 14.6824 11.4548 14.6441 11.4548 14.5993C11.4548 14.5069 11.4937 14.422 11.5372 14.3568C11.5407 14.3516 11.5447 14.3467 11.5491 14.3423C11.6105 14.2809 11.6904 14.2387 11.7867 14.2386C12.7234 14.2298 13.6519 14.1644 14.5799 14.0422C13.8472 13.4792 13.0754 12.9498 12.2794 12.469C12.2758 12.4669 12.2724 12.4645 12.2692 12.4619C12.2063 12.4116 12.1583 12.3389 12.1339 12.2659C12.1048 12.1786 12.1208 12.0819 12.1735 12.0029C12.2224 11.9296 12.2877 11.8763 12.3784 11.8504C12.47 11.8243 12.5609 11.8378 12.6369 11.8758C12.6392 11.8769 12.6415 11.8782 12.6437 11.8795C13.651 12.4911 14.6118 13.1677 15.5261 13.9094C15.9353 13.8327 16.3423 13.7559 16.7419 13.665C16.6201 13.201 16.4902 12.7447 16.3449 12.2889C15.2833 11.8738 14.2498 11.3939 13.2626 10.8583C13.1755 10.8141 13.1249 10.7309 13.1014 10.6485C13.1002 10.6443 13.0993 10.6401 13.0987 10.6358C13.0883 10.5635 13.084 10.4671 13.1422 10.3799C13.143 10.3786 13.1439 10.3773 13.1448 10.376C13.1611 10.3514 13.1871 10.3122 13.2274 10.2829C13.2694 10.2447 13.3216 10.2287 13.3451 10.2215C13.3481 10.2206 13.3506 10.2198 13.3526 10.2191C13.3549 10.2184 13.3572 10.2177 13.3596 10.2171C13.409 10.2047 13.4474 10.2048 13.4845 10.2048H13.4871C13.5429 10.2048 13.5886 10.2193 13.6312 10.2469C14.4202 10.6848 15.2333 11.082 16.0705 11.4311C15.7471 10.534 15.3823 9.64737 14.9686 8.79397C14.9679 8.79265 14.9673 8.79131 14.9667 8.78997C14.9321 8.70915 14.9172 8.61988 14.9437 8.52719C14.9692 8.43799 15.0317 8.36058 15.111 8.31909C15.1558 8.29091 15.21 8.27801 15.2535 8.27801C15.2547 8.27801 15.2561 8.27801 15.2576 8.278C15.2833 8.27795 15.3349 8.27785 15.3785 8.29237C15.4193 8.30598 15.4571 8.33122 15.4827 8.34834C15.4841 8.34921 15.4853 8.35007 15.4866 8.3509C15.4918 8.35437 15.4966 8.35834 15.5011 8.36276C15.5269 8.38855 15.5504 8.42384 15.5674 8.4494C15.5682 8.45068 15.5691 8.45193 15.5699 8.45315C15.5723 8.45671 15.5744 8.46042 15.5763 8.46427C16.0938 9.52706 16.5464 10.6364 16.9157 11.7648C17.3633 11.9357 17.8191 12.0914 18.2833 12.2389C18.3751 11.8953 18.4652 11.5464 18.5412 11.1977C17.7525 10.2371 17.0288 9.22059 16.3885 8.14802C16.3654 8.11229 16.3514 8.06655 16.3442 8.04309C16.3429 8.03887 16.3418 8.03537 16.341 8.03278C16.3264 7.98926 16.3251 7.93663 16.3369 7.89142C16.3398 7.86362 16.3493 7.84007 16.358 7.82269C16.3678 7.80307 16.3801 7.78456 16.3889 7.77148L16.39 7.76978C16.4198 7.72516 16.4623 7.69692 16.4884 7.67961C16.4898 7.67871 16.4911 7.67785 16.4923 7.67701C16.5284 7.65298 16.5756 7.63854 16.5996 7.6312C16.6038 7.62991 16.6074 7.62884 16.6099 7.62798C16.6567 7.6124 16.714 7.612 16.7613 7.62679C16.7877 7.63371 16.8096 7.64336 16.8258 7.65082C16.8304 7.65294 16.8343 7.65476 16.8376 7.65633C16.8486 7.66144 16.854 7.66398 16.8599 7.66594C16.8679 7.66861 16.8756 7.67233 16.8826 7.67701C16.9272 7.70676 16.9555 7.74929 16.9728 7.77537C16.9737 7.77671 16.9746 7.77801 16.9754 7.77927C16.9764 7.78071 16.9773 7.78219 16.9782 7.78369C17.5008 8.66907 18.0817 9.5131 18.7129 10.3158C18.8987 9.32255 19.0181 8.31318 19.0712 7.29545C19.0714 7.29262 19.0717 7.28979 19.0721 7.28698C19.0845 7.20021 19.1224 7.12442 19.1844 7.06244C19.255 6.99184 19.3491 6.9682 19.432 6.9682C19.5221 6.9682 19.6081 7.00531 19.6599 7.04413C19.6663 7.04893 19.6721 7.05452 19.6771 7.06077C19.7259 7.1218 19.7644 7.20858 19.7644 7.3004C19.7644 7.30206 19.7643 7.30373 19.7642 7.30539C19.6983 8.55678 19.5394 9.78992 19.2783 11.0047C19.5115 11.278 19.7519 11.5445 19.9937 11.8114C20.3075 11.4773 20.6066 11.1352 20.898 10.7852C20.7023 9.63651 20.5904 8.46958 20.5621 7.3027L20.5621 7.3004C20.5621 7.21751 20.5857 7.12355 20.6564 7.05295C20.7179 6.99144 20.798 6.94922 20.8945 6.94922C20.9386 6.94922 20.9883 6.9627 21.0195 6.97307C21.0275 6.97574 21.0351 6.97946 21.0421 6.98414L21.0459 6.98665C21.0693 7.00224 21.1009 7.02328 21.1259 7.04654C21.17 7.07862 21.1982 7.12305 21.2125 7.16598C21.2227 7.19672 21.236 7.24563 21.2363 7.28936C21.2627 8.21701 21.3457 9.13682 21.4781 10.0563C22.0409 9.32466 22.5624 8.56124 23.0352 7.77359C23.036 7.7723 23.0368 7.77103 23.0377 7.76978C23.0385 7.76852 23.0394 7.76722 23.0403 7.76588C23.0565 7.74138 23.0825 7.70236 23.1225 7.67306C23.1649 7.63348 23.2083 7.61907 23.2363 7.60976L23.2386 7.60899C23.2483 7.60577 23.2584 7.60412 23.2686 7.60412C23.2741 7.60412 23.2775 7.60375 23.2833 7.60313C23.2887 7.60255 23.2962 7.60174 23.3093 7.60081C23.3271 7.59954 23.3578 7.59809 23.3894 7.60766C23.4284 7.6175 23.4669 7.62963 23.5064 7.65484C23.5912 7.69955 23.6406 7.78156 23.6638 7.86279C23.6648 7.86623 23.6656 7.86973 23.6662 7.87326C23.6788 7.94902 23.6669 8.04538 23.629 8.12114C23.6278 8.12339 23.6266 8.12559 23.6253 8.12775C23.0229 9.12491 22.3554 10.0758 21.6226 10.9712C21.6997 11.3876 21.7843 11.8036 21.8766 12.2124C22.273 12.0993 22.67 11.9651 23.0694 11.8292C23.4479 10.6544 23.9101 9.50742 24.4561 8.4067L24.4562 8.40641C24.5025 8.31386 24.5916 8.27505 24.6536 8.25441C24.741 8.2253 24.8245 8.24229 24.897 8.27854C24.903 8.28153 24.9087 8.28514 24.9139 8.28932C24.9642 8.32957 25.0305 8.39147 25.0586 8.47579C25.0591 8.47709 25.0595 8.47841 25.0598 8.47973C25.0833 8.5617 25.0845 8.64792 25.0586 8.72565C25.0573 8.72955 25.0558 8.73337 25.054 8.73708C24.6106 9.6499 24.2172 10.579 23.8815 11.5322C24.751 11.1912 25.596 10.8081 26.4244 10.3677C26.4274 10.3661 26.4305 10.3647 26.4337 10.3634C26.5056 10.3347 26.5956 10.3367 26.67 10.3615C26.7479 10.3874 26.8154 10.4403 26.8562 10.5198C26.8965 10.589 26.9073 10.677 26.8952 10.7508C26.8808 10.849 26.8239 10.9158 26.7657 10.9623C26.7612 10.9658 26.7564 10.969 26.7513 10.9718C25.7354 11.5171 24.6823 11.9881 23.6014 12.385C23.4753 12.7835 23.3637 13.1828 23.2529 13.5903C23.6705 13.6902 24.0889 13.7754 24.5153 13.8527C25.4112 13.1297 26.3624 12.4719 27.3502 11.8701C27.3525 11.8687 27.3548 11.8675 27.3572 11.8663C27.4332 11.8283 27.5241 11.8148 27.6157 11.8409C27.7064 11.8668 27.7717 11.9201 27.8206 11.9934C27.8227 11.9967 27.8247 12.0001 27.8265 12.0036C27.8577 12.0661 27.8889 12.1479 27.8631 12.2462C27.8471 12.3434 27.7891 12.4101 27.7183 12.4573C27.717 12.4581 27.7157 12.4589 27.7144 12.4597C26.9283 12.9311 26.1741 13.4511 25.4518 14.0049C26.3627 14.128 27.2805 14.2014 28.1979 14.2101C28.2404 14.2102 28.288 14.2227 28.3191 14.2329C28.3718 14.2468 28.4181 14.275 28.4511 14.32C28.4838 14.3541 28.5103 14.3927 28.5249 14.4364C28.5257 14.4387 28.5263 14.441 28.5269 14.4434C28.5281 14.448 28.5294 14.453 28.5308 14.4583C28.5386 14.4876 28.5488 14.526 28.5488 14.5708C28.5488 14.6222 28.5364 14.6702 28.5255 14.7034ZM22.7543 16.7682C22.7571 16.7672 22.7599 16.7664 22.7628 16.7658C22.8399 16.7478 22.9167 16.7299 22.9933 16.712C23.2581 16.6502 23.5203 16.589 23.7819 16.5312C23.4897 16.2813 23.2047 16.0187 22.9271 15.7494L22.9261 15.7484C22.8645 15.6869 22.8223 15.6069 22.8223 15.5104C22.8223 15.414 22.8645 15.334 22.9261 15.2725C22.9267 15.2718 22.9274 15.2712 22.9281 15.2705C23.2145 15.0006 23.5012 14.7375 23.8002 14.4752C23.4532 14.4059 23.1067 14.3241 22.7608 14.2356C22.7586 14.2351 22.7564 14.2344 22.7543 14.2337C22.7134 14.2201 22.6756 14.1949 22.65 14.1778L22.6462 14.1752C22.6015 14.1454 22.5732 14.1029 22.5559 14.0768C22.555 14.0755 22.5542 14.0742 22.5533 14.0729C22.5487 14.0659 22.5449 14.0583 22.5423 14.0503C22.5412 14.0473 22.5397 14.0433 22.5366 14.0362C22.534 14.0301 22.5297 14.0203 22.5259 14.0105C22.5188 13.9921 22.511 13.9675 22.5093 13.9378C22.4993 13.8918 22.4983 13.841 22.5123 13.7955C22.6026 13.4184 22.7001 13.0406 22.811 12.6684C22.4428 12.7893 22.0788 12.9025 21.7072 13.0015C21.6992 13.0036 21.6909 13.0047 21.6827 13.0047H21.6257C21.5635 13.0047 21.4728 12.9956 21.4066 12.9295C21.4051 12.9279 21.4035 12.9264 21.4019 12.9248C21.3672 12.8903 21.311 12.8344 21.2954 12.7492C21.2066 12.3942 21.1247 12.0326 21.0497 11.6759C20.7818 11.9848 20.5019 12.2809 20.2237 12.5754L20.2228 12.5763C20.2222 12.577 20.2215 12.5776 20.2209 12.5783C20.1593 12.6398 20.0793 12.682 19.9828 12.682C19.8977 12.682 19.8078 12.6414 19.7447 12.5783C19.7439 12.5775 19.7432 12.5767 19.7424 12.5759C19.5175 12.3351 19.2995 12.0943 19.0825 11.8479C19.0081 12.1505 18.9271 12.4532 18.8394 12.7559C18.8386 12.7589 18.8376 12.7618 18.8364 12.7647C18.8141 12.8204 18.7755 12.8903 18.7021 12.9342C18.6462 12.9678 18.5816 12.9952 18.5013 12.9952H18.4348C18.4256 12.9952 18.4164 12.9939 18.4076 12.9912C17.9906 12.8662 17.5731 12.7337 17.1553 12.5874C17.276 12.9948 17.3829 13.4029 17.4826 13.8178C17.4843 13.8251 17.4852 13.8325 17.4852 13.84C17.4852 13.8488 17.4857 13.8543 17.4865 13.8626C17.4871 13.8682 17.4878 13.8752 17.4885 13.8854C17.4898 13.9044 17.4904 13.928 17.485 13.9556C17.4831 14.0078 17.4679 14.0512 17.4407 14.0919C17.4399 14.0932 17.439 14.0945 17.4381 14.0958C17.4208 14.1219 17.3926 14.1644 17.3479 14.1942C17.3087 14.2203 17.2699 14.2332 17.2425 14.2423L17.2398 14.2432C17.2372 14.2441 17.2345 14.2449 17.2318 14.2455C16.8952 14.3256 16.5505 14.406 16.2042 14.4751C16.4973 14.7299 16.789 14.9923 17.067 15.262L17.068 15.263C17.1295 15.3245 17.1718 15.4045 17.1718 15.5009C17.1718 15.5974 17.1295 15.6774 17.068 15.7389L17.067 15.7399C16.7882 16.0104 16.5026 16.2665 16.2107 16.52C16.5515 16.5921 16.8879 16.6666 17.2246 16.7545C17.2531 16.7571 17.2773 16.7668 17.295 16.7757C17.3146 16.7855 17.3331 16.7978 17.3462 16.8066L17.3479 16.8077C17.3926 16.8375 17.4208 16.88 17.4381 16.9061C17.439 16.9074 17.4399 16.9087 17.4407 16.91C17.4454 16.917 17.4491 16.9246 17.4518 16.9326L17.452 16.9332C17.4615 16.9617 17.472 16.993 17.4823 17.0345C17.4945 17.0832 17.4969 17.1383 17.4818 17.1872C17.3907 17.5758 17.2854 17.9641 17.1721 18.3519C17.5338 18.2311 17.8971 18.1182 18.2679 18.0194C18.2708 18.0186 18.2738 18.0179 18.2768 18.0174C18.354 18.0046 18.4408 18.0174 18.5153 18.0546C18.5188 18.0564 18.5222 18.0584 18.5255 18.0606C18.5989 18.1095 18.6522 18.1746 18.6781 18.2653C18.6783 18.2662 18.6786 18.267 18.6788 18.2679C18.7679 18.616 18.85 18.9776 18.9253 19.335C19.1911 19.0264 19.4637 18.7304 19.7428 18.435C19.7431 18.4348 19.7433 18.4345 19.7435 18.4343C19.7439 18.4339 19.7443 18.4335 19.7447 18.4331C19.8062 18.3716 19.8863 18.3294 19.9828 18.3294C20.0793 18.3294 20.1593 18.3716 20.2209 18.4331L20.222 18.4343C20.4476 18.6678 20.6661 18.9078 20.8833 19.1542C20.9576 18.8536 21.0386 18.5577 21.1261 18.2555C21.1265 18.2543 21.1269 18.2531 21.1273 18.2519C21.1409 18.2111 21.1661 18.1733 21.1833 18.1477L21.1858 18.1438C21.2156 18.0992 21.2581 18.071 21.2842 18.0537C21.2856 18.0528 21.2869 18.0519 21.2881 18.0511C21.3339 18.0206 21.3907 18.0067 21.4358 18.0067C21.4371 18.0067 21.4384 18.0067 21.4399 18.0067C21.4653 18.0066 21.5157 18.0065 21.5589 18.0204C21.9871 18.1463 22.4149 18.2869 22.8422 18.4355C22.7261 18.0266 22.6116 17.6102 22.5115 17.1936C22.5098 17.1863 22.5089 17.1789 22.5089 17.1714C22.5089 17.1626 22.5084 17.1571 22.5075 17.1488C22.507 17.1431 22.5063 17.1362 22.5056 17.126C22.5042 17.107 22.5037 17.0833 22.5091 17.0558C22.511 17.0036 22.5262 16.9602 22.5533 16.9195C22.5542 16.9182 22.555 16.9169 22.5559 16.9156C22.5733 16.8895 22.6015 16.8469 22.6462 16.8172C22.6853 16.7911 22.7241 16.7782 22.7516 16.7691L22.7543 16.7682Z" fill="black"/>
<path d="M14.2524 31.7332H14.1973L12.8851 26.7227H11.6737L10.3615 31.724H10.3064L9.07672 26.7227H7.74609L9.67321 33.5318H10.8845L12.2519 28.7507H12.3069L13.6651 33.5318H14.8856L16.8035 26.7227H15.4821L14.2524 31.7332Z" fill="black"/>
<path d="M20.5844 28.7322C20.3825 28.6037 20.1623 28.5028 19.9145 28.4477C19.6668 28.3927 19.4282 28.3652 19.1804 28.3652C18.8225 28.3652 18.5013 28.4202 18.2077 28.5212C17.914 28.6221 17.6662 28.7781 17.4643 28.9892C17.2625 29.2002 17.1156 29.4572 17.0239 29.7692L18.1434 29.9252C18.2077 29.7508 18.3178 29.5948 18.4921 29.4664C18.6665 29.3379 18.8959 29.2736 19.1896 29.2736C19.4649 29.2736 19.6851 29.3379 19.8319 29.4755C19.9788 29.6132 20.0522 29.8059 20.0522 30.0537V30.072C20.0522 30.1913 20.0063 30.2739 19.9237 30.329C19.8411 30.384 19.7035 30.4207 19.5199 30.4483C19.3364 30.4758 19.0886 30.5033 18.795 30.5309C18.5472 30.5584 18.3086 30.6043 18.07 30.6593C17.8406 30.7144 17.6295 30.8062 17.446 30.9163C17.2625 31.0264 17.1156 31.1824 17.0147 31.3659C16.9046 31.5587 16.8587 31.7881 16.8587 32.0817C16.8587 32.4121 16.9321 32.6966 17.0789 32.926C17.2257 33.1554 17.4368 33.3298 17.6938 33.4491C17.9507 33.5684 18.2444 33.6234 18.5656 33.6234C18.8317 33.6234 19.0611 33.5867 19.263 33.5133C19.4649 33.4399 19.6301 33.3389 19.7585 33.2197C19.887 33.0912 19.9971 32.9627 20.0705 32.8251H20.1072V33.5317H21.2635V30.1179C21.2635 29.7784 21.1993 29.4939 21.08 29.2736C20.9423 29.0442 20.7863 28.8607 20.5844 28.7322ZM20.0522 31.6963C20.0522 31.889 20.0063 32.0542 19.9054 32.2194C19.8136 32.3754 19.6759 32.5039 19.4924 32.6048C19.318 32.6966 19.107 32.7516 18.8684 32.7516C18.6206 32.7516 18.4095 32.6966 18.2535 32.5865C18.0884 32.4763 18.0149 32.302 18.0149 32.0817C18.0149 31.9257 18.0517 31.7973 18.1342 31.7055C18.2168 31.6045 18.327 31.5311 18.4738 31.4761C18.6114 31.421 18.7766 31.3843 18.9602 31.3568C19.0427 31.3476 19.1345 31.3292 19.2446 31.3201C19.3548 31.3017 19.4649 31.2834 19.575 31.265C19.6851 31.2466 19.7861 31.2191 19.8778 31.1916C19.9696 31.1641 20.0338 31.1365 20.0705 31.109V31.6963H20.0522Z" fill="black"/>
<path d="M26.9898 28.4295H25.5857L23.7504 30.4759H23.6678V26.7227H22.4656V33.5318H23.6678V31.8158L24.1083 31.3477L25.6683 33.5318H27.1091L25.0076 30.632L26.9898 28.4295Z" fill="black"/>
<path d="M31.0459 28.4295V31.3844C31.0459 31.6414 30.9908 31.8616 30.8807 32.036C30.7706 32.2103 30.6421 32.3388 30.4678 32.4214C30.3026 32.504 30.1282 32.5499 29.9539 32.5499C29.6694 32.5499 29.4308 32.4581 29.2564 32.2654C29.0821 32.0727 28.9903 31.8157 28.9903 31.4945V28.4295H27.7881V31.6781C27.7881 32.0818 27.8616 32.4306 28.0084 32.7242C28.1552 33.0087 28.3479 33.2289 28.6049 33.3758C28.8618 33.5226 29.1555 33.596 29.495 33.596C29.8804 33.596 30.2016 33.5042 30.4586 33.3207C30.7247 33.1372 30.9082 32.9077 31.0275 32.6233H31.0826V33.5318H32.248V28.4295H31.0459Z" fill="black"/>
</svg>
