<svg width="116" height="116" viewBox="0 0 116 116" fill="none" xmlns="http://www.w3.org/2000/svg">
<path fill-rule="evenodd" clip-rule="evenodd" d="M89.913 55.0155C89.8123 55.358 89.5341 55.6821 89.235 55.8315C89.1236 55.8872 88.9822 55.9303 88.7904 55.9687C88.7656 55.9736 88.7403 55.9759 88.715 55.9755C84.3105 55.9051 79.9048 55.5216 75.5668 54.7902C74.2914 55.8453 73.046 56.9291 71.8301 58.0676C73.0427 59.175 74.2596 60.2292 75.5327 61.282C79.902 60.5846 84.3092 60.1662 88.7534 60.131L88.7562 60.131C88.9214 60.131 89.1075 60.1814 89.224 60.2202C90.126 60.5207 90.0965 61.869 89.5184 62.464C89.2981 62.7278 88.9487 62.8647 88.6178 62.8657C85.1494 62.9312 81.7122 63.178 78.278 63.6339C81.0128 65.7059 83.8679 67.6545 86.8434 69.4519C86.8479 69.4546 86.8524 69.4574 86.8568 69.4603L86.8714 69.47C86.9631 69.5309 87.1092 69.6278 87.2189 69.7778C87.3671 69.9363 87.421 70.0985 87.4559 70.2032L87.4587 70.2118C87.4708 70.248 87.477 70.2859 87.477 70.3241C87.477 70.3444 87.4783 70.3572 87.4807 70.379C87.4828 70.3992 87.4859 70.4272 87.4894 70.4764C87.4941 70.5427 87.4996 70.6575 87.4637 70.7759C87.4253 70.9276 87.3777 71.0776 87.2751 71.2314C87.2621 71.2509 87.2473 71.269 87.2307 71.2855C87.2099 71.3063 87.1882 71.3298 87.1599 71.3604L87.1594 71.3609C87.1329 71.3896 87.1007 71.4244 87.0664 71.4587C86.9985 71.5265 86.9045 71.611 86.783 71.6717C86.5912 71.7676 86.3946 71.8158 86.1621 71.8158C85.9482 71.8158 85.6912 71.7748 85.4681 71.6149C81.7032 69.3634 78.1114 66.8686 74.7269 64.1304C73.2021 64.3883 71.6757 64.7027 70.147 65.0482C70.6018 66.753 71.0869 68.4533 71.629 70.1238C75.6042 71.6444 79.4398 73.4421 83.17 75.482C83.1791 75.487 83.188 75.4923 83.1966 75.4981C83.2013 75.5012 83.2061 75.5044 83.2112 75.5078C83.3037 75.5692 83.4516 75.6673 83.5616 75.8196C83.6352 75.9041 83.6764 76.0004 83.6998 76.0612C83.7189 76.1108 83.7388 76.1737 83.7521 76.2155C83.7566 76.2297 83.7603 76.2415 83.763 76.2495C83.7751 76.2857 83.7812 76.3237 83.7812 76.3618C83.7812 76.3822 83.7826 76.395 83.7849 76.4167C83.7871 76.437 83.7901 76.465 83.7937 76.5141C83.7984 76.5805 83.8038 76.6952 83.768 76.8136C83.7311 76.9593 83.6858 77.1035 83.5913 77.2509C83.424 77.5682 83.1169 77.753 82.8128 77.8398C82.7972 77.8443 82.7814 77.8476 82.7654 77.8499C82.452 77.8947 82.1294 77.8513 81.8455 77.7095C81.8414 77.7074 81.8373 77.7053 81.8333 77.7031C78.8484 76.0639 75.8022 74.6067 72.6944 73.3034C73.908 76.6574 75.3033 79.9742 76.8517 83.1681C76.8542 83.1731 76.8565 83.1782 76.8587 83.1833C76.8598 83.1859 76.8608 83.1885 76.8619 83.1911C76.9443 83.3969 76.9939 83.5848 76.9939 83.8202C76.9939 84.0528 76.8867 84.2959 76.8142 84.4407C76.8047 84.4598 76.7935 84.478 76.7807 84.495C76.7757 84.5017 76.7705 84.5086 76.7651 84.5158C76.6708 84.6421 76.5192 84.8452 76.3 84.9547C76.1082 85.0506 75.9116 85.0988 75.6791 85.0988C75.4873 85.0988 75.2263 85.0524 75.0039 84.8857C74.8099 84.7403 74.6705 84.5517 74.5794 84.3697L74.5789 84.3686C72.6064 80.3906 70.9123 76.2392 69.5307 72.0171C67.8181 71.3755 66.0747 70.7914 64.2998 70.238C63.9365 71.5164 63.6252 72.8199 63.3417 74.1019C66.3281 77.697 69.0363 81.5006 71.4663 85.5126C71.6646 85.8142 71.7121 86.1682 71.6143 86.5104C71.6129 86.5154 71.6114 86.5203 71.6098 86.5252C71.5175 86.8017 71.3317 87.0845 71.0433 87.2766C70.9084 87.3666 70.7316 87.4206 70.6418 87.4481C70.626 87.4529 70.6129 87.4569 70.6032 87.4601C70.4237 87.52 70.2027 87.52 70.0231 87.4601C69.8703 87.4092 69.7289 87.3148 69.6329 87.2507L69.6185 87.2411C69.4515 87.1298 69.3458 86.9707 69.2809 86.8731L69.2712 86.8585C69.2697 86.8562 69.2682 86.8539 69.2667 86.8516C69.2652 86.8491 69.2637 86.8467 69.2622 86.8442C67.2708 83.527 65.0931 80.3662 62.7002 77.3614C62.0002 81.1104 61.5217 84.8884 61.3226 88.696C61.3197 89.0524 61.1624 89.3483 60.9342 89.5763C60.7039 89.8065 60.4045 89.9645 60.0433 89.9645C59.8781 89.9645 59.692 89.914 59.5756 89.8752C59.4055 89.8186 59.2292 89.7039 59.108 89.5222L59.0984 89.5079C59.0343 89.412 58.9398 89.2706 58.8889 89.1179C58.8345 88.9548 58.8349 88.7621 58.8351 88.6657L58.8351 88.6504C58.8351 88.648 58.8351 88.6457 58.8352 88.6433C58.8352 88.6403 58.8353 88.6373 58.8355 88.6343C59.047 83.983 59.6763 79.3339 60.6195 74.79C59.7444 73.7595 58.8739 72.7389 57.955 71.7697C56.8046 73.0522 55.6841 74.3355 54.5933 75.6461C55.3254 79.9443 55.7446 84.31 55.8854 88.6745C55.8856 88.6783 55.8856 88.6821 55.8856 88.6859C55.8856 88.8453 55.8386 89.0241 55.8004 89.141C55.7505 89.3299 55.6573 89.479 55.5567 89.587C55.4367 89.7518 55.2703 89.8572 55.1096 89.9107C54.9931 89.9495 54.807 90 54.6419 90C54.4417 90 54.289 89.9491 54.1826 89.9136L54.1741 89.9107C54.1442 89.9008 54.1157 89.8868 54.0894 89.8693L54.0753 89.86C53.9876 89.8016 53.8693 89.7229 53.7758 89.6358C53.6109 89.5158 53.5055 89.3495 53.4519 89.1889C53.4135 89.0739 53.3638 88.8908 53.3626 88.7272C53.2641 85.2556 52.9532 81.7832 52.4578 78.3379C50.3522 81.0759 48.401 83.9345 46.6321 86.9138C46.6256 86.9248 46.6184 86.9354 46.6108 86.9456C46.6058 86.9523 46.6006 86.9592 46.5952 86.9664C46.5053 87.0869 46.3632 87.2772 46.16 87.3896C45.9506 87.5383 45.7361 87.5849 45.5092 87.5849C45.32 87.5849 45.0634 87.5398 44.8429 87.3784C44.8405 87.3768 44.838 87.3752 44.8355 87.3735C44.7429 87.3121 44.595 87.2139 44.485 87.0617C44.4114 86.9772 44.3702 86.8808 44.3468 86.8201C44.3277 86.7705 44.3078 86.7076 44.2946 86.6658C44.2901 86.6516 44.2863 86.6398 44.2836 86.6317C44.2716 86.5955 44.2654 86.5576 44.2654 86.5194V86.1643C44.2654 85.9535 44.321 85.7811 44.4262 85.6204C46.6453 81.8895 49.1426 78.2975 51.884 74.913C51.6261 73.3905 51.3113 71.8679 50.9394 70.3451C49.4473 70.794 47.9572 71.2727 46.4683 71.8069C45.0531 76.1326 43.3588 80.3895 41.3506 84.4741C41.348 84.4794 41.3452 84.4847 41.3423 84.4899C41.3404 84.4933 41.3384 84.4968 41.3364 84.5002C41.2026 84.7229 41.0626 84.8625 40.8895 84.9922C40.8797 84.9996 40.8696 85.0064 40.8591 85.0127C40.6265 85.1521 40.4212 85.2053 40.1788 85.2053C39.9753 85.2053 39.779 85.154 39.5934 85.0613C39.5803 85.0547 39.5675 85.0473 39.5552 85.0391C39.5505 85.036 39.5457 85.0328 39.5406 85.0294C39.4485 84.9683 39.3013 84.8706 39.1914 84.7193C39.0765 84.5913 38.993 84.4069 38.9533 84.2877C38.9504 84.2791 38.9479 84.2703 38.9456 84.2615C38.8994 84.0768 38.8995 83.933 38.8995 83.7944V83.7847C38.8995 83.6235 38.9471 83.4225 39.0509 83.2556C40.6702 79.918 42.1039 76.4884 43.3235 72.9957C40.1067 74.2731 36.9561 75.7338 33.9287 77.3776C33.7601 77.4848 33.5553 77.5339 33.3914 77.5339C33.3866 77.5339 33.3815 77.5339 33.3761 77.5339C33.2796 77.5341 33.0869 77.5345 32.9237 77.4801C32.7958 77.4375 32.593 77.3447 32.465 77.2167C32.3684 77.1202 32.2805 76.9882 32.2168 76.8926L32.2074 76.8785C32.0932 76.7073 32.0411 76.495 32.0411 76.3263C32.0411 76.3215 32.0411 76.3164 32.0411 76.311C32.0409 76.2146 32.0405 76.0219 32.0949 75.8588C32.1458 75.7061 32.2403 75.5648 32.3044 75.4689C32.3077 75.464 32.3109 75.4592 32.314 75.4545C32.4254 75.2875 32.5846 75.1818 32.6823 75.1171C32.6873 75.1137 32.6921 75.1105 32.6968 75.1074C32.7051 75.1019 32.7136 75.0967 32.7224 75.0919C36.4907 73.0152 40.3971 71.2515 44.4071 69.7665C44.9132 68.2032 45.3633 66.6104 45.7833 65.013C44.2541 64.6673 42.7273 64.3529 41.202 64.0949C37.8176 66.8331 34.2257 69.3279 30.4609 71.5794C30.2378 71.7393 29.9808 71.7802 29.7668 71.7802C29.5761 71.7802 29.343 71.7347 29.1459 71.6362C28.9779 71.5522 28.7641 71.4069 28.6416 71.177C28.5589 71.0449 28.5085 70.8802 28.4823 70.7946C28.4774 70.7788 28.4734 70.7657 28.4702 70.756C28.4104 70.5766 28.4104 70.3557 28.4702 70.1763C28.5212 70.0235 28.6156 69.8822 28.6797 69.7863L28.6893 69.7719C28.8007 69.605 28.96 69.4993 29.0576 69.4345C29.0626 69.4312 29.0675 69.4279 29.0722 69.4248C29.0765 69.4219 29.081 69.4191 29.0855 69.4164C32.0658 67.616 34.9542 65.665 37.6949 63.5635C34.251 63.1022 30.7812 62.8274 27.313 62.7947C27.154 62.7943 26.9759 62.7475 26.8594 62.7095C26.6623 62.6574 26.489 62.5517 26.3656 62.3833C26.2431 62.2561 26.1439 62.1116 26.0893 61.9481L26.0865 61.9396C26.051 61.8332 26 61.6806 26 61.4806C26 61.1053 26.1419 60.7654 26.3884 60.5191C26.6299 60.2777 26.968 60.131 27.3148 60.131H27.3176C31.7598 60.1662 36.202 60.5496 40.5758 61.2811C41.822 60.2571 43.0624 59.2068 44.2476 58.1029C43.06 56.9649 41.8153 55.8809 40.5383 54.8245C36.169 55.522 31.7619 55.9403 27.3176 55.9756L27.3148 55.9756C27.1497 55.9756 26.9635 55.9251 26.8471 55.8863C26.6869 55.833 26.5211 55.7281 26.4011 55.5642C26.2787 55.4369 26.1794 55.2925 26.1248 55.129C26.122 55.1203 26.1194 55.1116 26.1172 55.1028C26.1128 55.0852 26.1079 55.0665 26.1026 55.0467C26.0736 54.9372 26.0355 54.7937 26.0355 54.626C26.0355 54.2802 26.1812 53.9626 26.344 53.7186C26.3569 53.6992 26.3718 53.6811 26.3884 53.6645C26.6183 53.4347 26.9172 53.2769 27.2776 53.2764C30.7824 53.2436 34.2569 52.9987 37.7293 52.5416C34.9878 50.4349 32.0996 48.4539 29.121 46.6547C29.1077 46.6466 29.095 46.6378 29.0828 46.6281C28.8477 46.44 28.6679 46.1678 28.5768 45.8948C28.4679 45.5681 28.5277 45.2062 28.7249 44.9107C28.9079 44.6363 29.152 44.4369 29.4915 44.34C29.8343 44.2421 30.1744 44.2927 30.4588 44.4348C30.4675 44.4392 30.476 44.4439 30.4843 44.449C34.2535 46.7374 37.8489 49.2693 41.2702 52.0446C42.8013 51.7576 44.3243 51.4701 45.8193 51.1301C45.3638 49.3938 44.8776 47.6864 44.3338 45.9808C40.3617 44.4274 36.4943 42.6317 32.8002 40.6277C32.4741 40.4621 32.2851 40.1507 32.1969 39.8423C32.1925 39.8268 32.1891 39.8109 32.1868 39.795C32.1481 39.5244 32.132 39.1635 32.3495 38.8374C32.3527 38.8327 32.3559 38.8278 32.3592 38.8228C32.4203 38.7309 32.5177 38.5842 32.6685 38.4745C32.8258 38.3314 33.0209 38.2715 33.1088 38.2446C33.12 38.2411 33.1295 38.2382 33.1369 38.2358C33.1456 38.2329 33.1543 38.2303 33.1631 38.2281C33.3479 38.182 33.4918 38.182 33.6305 38.182H33.6402C33.849 38.182 34.0202 38.2365 34.1796 38.3396C37.1317 39.9782 40.1742 41.4646 43.3072 42.7708C42.097 39.414 40.732 36.0963 39.1838 32.9029C39.1814 32.898 39.1791 32.893 39.177 32.888C39.0473 32.5856 38.9917 32.2515 39.0909 31.9046C39.1863 31.5709 39.4201 31.2812 39.7167 31.126C39.8844 31.0205 40.0873 30.9723 40.2499 30.9723C40.2547 30.9723 40.2598 30.9722 40.2652 30.9722C40.3617 30.972 40.5544 30.9716 40.7176 31.026C40.8704 31.0769 41.0119 31.1714 41.1078 31.2354C41.1127 31.2387 41.1175 31.2419 41.1222 31.245C41.1416 31.258 41.1598 31.2728 41.1763 31.2894C41.2729 31.3859 41.3609 31.5179 41.4246 31.6136C41.4277 31.6184 41.4309 31.623 41.4339 31.6276C41.4428 31.6409 41.4508 31.6548 41.4578 31.6692C43.3945 35.6461 45.0881 39.7972 46.4697 44.0197C48.1447 44.6593 49.8504 45.2416 51.5874 45.7935C51.9307 44.508 52.2681 43.2025 52.5525 41.8975C49.6011 38.3032 46.8929 34.4993 44.4971 30.4858C44.4105 30.3521 44.3581 30.181 44.3313 30.0932C44.3264 30.0774 44.3224 30.0643 44.3192 30.0546C44.2649 29.8918 44.2598 29.6948 44.3041 29.5257C44.3147 29.4216 44.3503 29.3335 44.3829 29.2685C44.4196 29.195 44.4658 29.1258 44.4985 29.0769L44.5028 29.0705C44.6141 28.9035 44.7734 28.7978 44.871 28.7331C44.876 28.7297 44.8809 28.7265 44.8856 28.7234C45.0206 28.6334 45.1974 28.5794 45.2871 28.5519C45.3029 28.5471 45.316 28.5431 45.3257 28.5399C45.5007 28.4816 45.7151 28.4801 45.8921 28.5354C45.9907 28.5613 46.0728 28.5974 46.1334 28.6254C46.1505 28.6333 46.1651 28.6401 46.1777 28.646C46.2188 28.6651 46.2391 28.6746 46.2612 28.6819C46.2911 28.6919 46.3196 28.7058 46.3459 28.7234C46.513 28.8347 46.6187 28.9938 46.6835 29.0914C46.6869 29.0964 46.6901 29.1013 46.6932 29.106C46.6968 29.1114 46.7003 29.1169 46.7036 29.1225C48.6594 32.4356 50.8328 35.5939 53.195 38.5975C53.89 34.8808 54.3369 31.1039 54.5357 27.2956C54.5363 27.285 54.5373 27.2744 54.5388 27.2639C54.5852 26.9392 54.7271 26.6556 54.9592 26.4237C55.2235 26.1595 55.5753 26.071 55.8856 26.071C56.2227 26.071 56.5447 26.2099 56.7385 26.3552C56.7624 26.3731 56.784 26.394 56.8028 26.4174C56.9856 26.6458 57.1294 26.9705 57.1294 27.3141C57.1294 27.3203 57.1292 27.3265 57.1289 27.3328C56.8823 32.0154 56.2877 36.6297 55.3105 41.1754C56.1831 42.1982 57.0826 43.1954 57.9875 44.1939C59.1618 42.9437 60.2809 41.6638 61.3712 40.3539C60.639 36.0557 60.2202 31.6891 60.1145 27.3227L60.1144 27.3141C60.1144 27.0039 60.2029 26.6523 60.4672 26.3882C60.6975 26.158 60.997 26 61.3581 26C61.5233 26 61.7094 26.0505 61.8259 26.0893C61.8558 26.0992 61.8843 26.1132 61.9106 26.1307L61.9247 26.1401C62.0124 26.1984 62.1307 26.2771 62.2242 26.3642C62.3891 26.4842 62.4945 26.6505 62.5481 26.8111C62.5865 26.9261 62.6362 27.1092 62.6374 27.2728C62.7359 30.744 63.0467 34.1858 63.5421 37.6266C65.6478 34.8888 67.5994 32.0321 69.3688 29.0848C69.3717 29.0799 69.3747 29.0752 69.3778 29.0705C69.381 29.0658 69.3842 29.0609 69.3875 29.0559C69.4484 28.9642 69.5454 28.8182 69.6955 28.7086C69.8541 28.5605 70.0164 28.5065 70.1211 28.4717L70.1297 28.4688C70.1659 28.4568 70.2039 28.4506 70.2421 28.4506C70.2624 28.4506 70.2753 28.4492 70.297 28.4469C70.3173 28.4447 70.3453 28.4417 70.3944 28.4382C70.4608 28.4335 70.5756 28.428 70.6941 28.4638C70.8399 28.5007 70.9842 28.546 71.1317 28.6404C71.4492 28.8077 71.634 29.1146 71.7209 29.4185C71.7246 29.4314 71.7276 29.4445 71.7298 29.4577C71.777 29.7412 71.7323 30.1018 71.5905 30.3852C71.5863 30.3937 71.5817 30.4019 71.5768 30.41C69.3227 34.1413 66.8248 37.6994 64.0829 41.0499C64.3712 42.6081 64.688 44.1648 65.0332 45.6946C66.5166 45.2714 68.002 44.7691 69.4964 44.2608C70.9129 39.8645 72.6426 35.5726 74.6855 31.4538L74.686 31.4527C74.8593 31.1064 75.1927 30.9612 75.4246 30.8839C75.7515 30.775 76.064 30.8386 76.3355 30.9742C76.3579 30.9854 76.379 30.9989 76.3986 31.0146C76.5869 31.1652 76.8349 31.3968 76.9401 31.7123C76.9417 31.7172 76.9433 31.7221 76.9447 31.7271C77.0324 32.0338 77.0371 32.3564 76.9401 32.6473C76.9352 32.6619 76.9294 32.6762 76.9227 32.6901C75.2636 36.1058 73.7917 39.5824 72.5356 43.1491C75.7891 41.873 78.9511 40.4397 82.0508 38.7919C82.0621 38.7859 82.0738 38.7804 82.0857 38.7757C82.3546 38.6682 82.6913 38.6758 82.9697 38.7685C83.2612 38.8656 83.5139 39.0636 83.6666 39.3608C83.8173 39.6198 83.8577 39.949 83.8126 40.2253C83.7588 40.5928 83.5457 40.8425 83.328 41.0165C83.3112 41.03 83.2932 41.0419 83.2742 41.0521C79.4725 43.0926 75.5321 44.8553 71.4874 46.3402C71.0153 47.8317 70.5979 49.3255 70.1832 50.8506C71.7457 51.2245 73.3114 51.5431 74.9069 51.8324C78.2596 49.1269 81.8188 46.6655 85.5152 44.4137C85.5237 44.4086 85.5324 44.4038 85.5412 44.3993C85.8256 44.2572 86.1657 44.2066 86.5085 44.3045C86.848 44.4014 87.0921 44.6008 87.2751 44.8751C87.2833 44.8874 87.2907 44.9001 87.2973 44.9133C87.4142 45.147 87.5309 45.4533 87.4342 45.8211C87.3746 46.1845 87.1572 46.4342 86.8923 46.6107C86.8876 46.6138 86.8828 46.6169 86.878 46.6198C83.9362 48.3839 81.114 50.3298 78.4115 52.402C81.8199 52.8627 85.2544 53.1371 88.6871 53.1698C88.8461 53.1702 89.0241 53.217 89.1406 53.255C89.3377 53.307 89.511 53.4127 89.6344 53.5812C89.7569 53.7084 89.8561 53.8529 89.9107 54.0164C89.9136 54.0251 89.9161 54.0338 89.9183 54.0426C89.9227 54.0601 89.9277 54.0789 89.9329 54.0987C89.962 54.2082 90 54.3516 90 54.5194C90 54.7116 89.9539 54.8914 89.913 55.0155ZM68.3174 62.7419C68.3279 62.7384 68.3385 62.7354 68.3493 62.7329C68.6377 62.6658 68.9252 62.5987 69.2118 62.5318C70.2027 62.3005 71.1837 62.0714 72.1626 61.8552C71.0691 60.9202 70.0029 59.9374 68.9641 58.9297L68.9603 58.9259C68.73 58.6958 68.5719 58.3965 68.5719 58.0355C68.5719 57.6746 68.73 57.3752 68.9603 57.1451C68.9627 57.1426 68.9652 57.1402 68.9678 57.1378C70.0396 56.1278 71.1124 55.1432 72.2311 54.1618C70.9327 53.9023 69.636 53.5962 68.3417 53.2653C68.3335 53.2632 68.3254 53.2608 68.3174 53.2581C68.1645 53.2072 68.0231 53.1128 67.9272 53.0487L67.9128 53.0391C67.7458 52.9278 67.64 52.7687 67.5752 52.6711C67.5719 52.6661 67.5686 52.6612 67.5655 52.6565C67.548 52.6302 67.5341 52.6018 67.5241 52.5718C67.5203 52.5604 67.5143 52.5456 67.5029 52.5189C67.4931 52.496 67.4771 52.4596 67.4629 52.4227C67.4364 52.354 67.4073 52.262 67.4006 52.151C67.3633 51.9787 67.3595 51.7884 67.412 51.6183C67.7498 50.2072 68.1147 48.7934 68.5297 47.4007C67.1519 47.8531 65.7897 48.2767 64.3992 48.6473C64.3693 48.6552 64.3385 48.6593 64.3076 48.6593H64.0944C63.8615 48.6593 63.5221 48.6251 63.2745 48.3777C63.2689 48.372 63.263 48.3662 63.257 48.3602C63.1272 48.231 62.9169 48.0219 62.8582 47.7033C62.5261 46.3748 62.2197 45.0216 61.9391 43.687C60.9364 44.8428 59.8892 45.9509 58.8481 47.0527L58.8447 47.0563C58.8424 47.0588 58.84 47.0612 58.8376 47.0636C58.6073 47.2937 58.3078 47.4517 57.9467 47.4517C57.6283 47.4517 57.292 47.2996 57.0558 47.0636C57.0529 47.0607 57.0501 47.0577 57.0473 47.0548C56.2058 46.1537 55.3897 45.2526 54.5777 44.3304C54.2995 45.463 53.9964 46.5956 53.6684 47.7281C53.6651 47.7393 53.6613 47.7504 53.657 47.7612C53.5737 47.9694 53.429 48.231 53.1545 48.3956C52.9453 48.521 52.7037 48.6238 52.4031 48.6238H52.1544C52.1198 48.6238 52.0854 48.6187 52.0522 48.6088C50.492 48.1409 48.9298 47.6452 47.3666 47.0978C47.8179 48.6223 48.2181 50.1493 48.591 51.7018C48.5975 51.7289 48.6008 51.7568 48.6008 51.7847C48.6008 51.8178 48.6028 51.8383 48.6058 51.8694C48.6079 51.8906 48.6105 51.9166 48.6132 51.9547C48.6183 52.0257 48.6202 52.1143 48.6 52.2173C48.593 52.4127 48.5361 52.5753 48.4345 52.7275C48.4314 52.7322 48.4281 52.7371 48.4248 52.7421C48.36 52.8397 48.2542 52.9989 48.0872 53.1102C47.9406 53.2078 47.7954 53.2561 47.6926 53.2903L47.6826 53.2936C47.6727 53.2969 47.6627 53.2998 47.6525 53.3022C46.3932 53.6019 45.1033 53.9028 43.8076 54.1613C44.9042 55.115 45.9957 56.0967 47.0359 57.1059L47.0397 57.1096C47.27 57.3397 47.4281 57.6391 47.4281 58C47.4281 58.361 47.27 58.6603 47.0397 58.8904L47.0359 58.8941C45.9926 59.9063 44.924 60.8647 43.8319 61.8133C45.1071 62.0832 46.3659 62.3618 47.6257 62.6907C47.7324 62.7005 47.8227 62.7369 47.8891 62.77C47.9625 62.8067 48.0318 62.8529 48.0808 62.8856L48.0872 62.8898C48.2542 63.0011 48.36 63.1603 48.4248 63.2579C48.4281 63.2629 48.4314 63.2678 48.4345 63.2725C48.452 63.2987 48.4659 63.3272 48.4759 63.3572L48.4767 63.3596C48.5122 63.466 48.5513 63.5832 48.5902 63.7385C48.6357 63.9206 48.6445 64.1267 48.5883 64.3098C48.2473 65.7642 47.8532 67.2171 47.4294 68.668C48.7825 68.2162 50.1421 67.7936 51.5298 67.4238C51.5407 67.4208 51.5517 67.4185 51.5629 67.4166C51.8519 67.3685 52.1766 67.4165 52.4554 67.5558C52.4686 67.5624 52.4814 67.5698 52.4936 67.578C52.7681 67.7609 52.9676 68.0048 53.0646 68.3442C53.0655 68.3473 53.0664 68.3505 53.0672 68.3537C53.4006 69.6564 53.708 71.0094 53.9895 72.3468C54.9841 71.1921 56.0043 70.0845 57.0487 68.9792C57.0496 68.9783 57.0505 68.9773 57.0515 68.9763C57.0529 68.9749 57.0543 68.9734 57.0558 68.9719C57.2861 68.7418 57.5855 68.5838 57.9467 68.5838C58.3078 68.5838 58.6073 68.7418 58.8376 68.9719L58.842 68.9764C59.686 69.85 60.5037 70.7482 61.3162 71.6703C61.5945 70.5454 61.8975 69.4382 62.225 68.3075C62.2263 68.3029 62.2277 68.2984 62.2292 68.2939C62.2802 68.1411 62.3747 67.9998 62.4388 67.9039L62.4484 67.8896C62.5597 67.7226 62.719 67.6169 62.8166 67.5521C62.8216 67.5488 62.8265 67.5456 62.8312 67.5424C63.0025 67.4283 63.2149 67.3763 63.3837 67.3763C63.3885 67.3763 63.3936 67.3762 63.399 67.3762C63.4941 67.376 63.6828 67.3757 63.8444 67.4277C65.4466 67.8988 67.0475 68.4247 68.6464 68.9809C68.2121 67.4507 67.7834 65.8929 67.409 64.3337C67.4025 64.3066 67.3992 64.2788 67.3992 64.2508C67.3992 64.2177 67.3972 64.1972 67.3942 64.1661C67.3921 64.145 67.3895 64.1189 67.3868 64.0808C67.3817 64.0098 67.3798 63.9212 67.4 63.8183C67.407 63.6228 67.4639 63.4603 67.5655 63.308C67.5686 63.3033 67.5719 63.2984 67.5752 63.2934C67.64 63.1958 67.7458 63.0367 67.9128 62.9254C68.0594 62.8277 68.2046 62.7794 68.3074 62.7452L68.3174 62.7419Z" fill="black"/>
</svg>
